<svg xmlns="http://www.w3.org/2000/svg" viewBox="0 0 210 210" role="img" aria-labelledby="title"><title id="title">Maia pointing</title><path fill="#2b4acb" d="M96 8c-7 27-4 45 13 61 22 21 39 42 37 74-2 35-24 58-58 58-37 0-61-24-60-59 1-21 13-38 28-56C74 64 85 42 96 8Z"/><path fill="#2b4acb" d="m138 123 60-12-35 20 37 7-62 13Z"/><path fill="#fff9ed" d="M55 78c3 29 14 43 35 55 18 11 19 32 1 55-30-10-43-33-35-57 4-13 5-30-1-53Z"/><path fill="#d9a514" d="M88 129c19 17 19 34 2 55-17-8-22-22-15-35 3-7 8-13 13-20Z"/><g fill="#fff9ed"><ellipse cx="78" cy="108" rx="8" ry="10"/><ellipse cx="111" cy="108" rx="8" ry="10"/></g><g fill="#131c31"><circle cx="81" cy="109" r="3.2"/><circle cx="114" cy="109" r="3.2"/></g></svg>
