<svg xmlns="http://www.w3.org/2000/svg" viewBox="0 0 180 210" role="img" aria-labelledby="title"><title id="title">Maia thinking</title><path fill="#2b4acb" d="M96 8c-7 27-4 45 13 61 22 21 39 42 37 74-2 35-24 58-58 58-37 0-61-24-60-59 1-21 13-38 28-56C74 64 85 42 96 8Z"/><path fill="#fff9ed" d="M55 78c3 29 14 43 35 55 18 11 19 32 1 55-30-10-43-33-35-57 4-13 5-30-1-53Z"/><path fill="#d9a514" d="M88 129c19 17 19 34 2 55-17-8-22-22-15-35 3-7 8-13 13-20Z"/><path fill="#2b4acb" d="M132 128c21 4 26 19 17 32-8 11-20 4-24-7Z"/><path d="M70 98q8-7 16 0m17-2q8-7 16 0M86 122q7-4 14 1" fill="none" stroke="#fff9ed" stroke-linecap="round" stroke-width="3"/><g fill="#d9a514"><circle cx="135" cy="67" r="4"/><circle cx="146" cy="52" r="6"/><circle cx="153" cy="31" r="9"/></g></svg>
