<svg xmlns="http://www.w3.org/2000/svg" viewBox="0 0 238 463" role="img" aria-labelledby="title"><title id="title">Maia curious</title><path fill="#1953c8" stroke="#1953c8" stroke-width="1.2" stroke-linejoin="round" fill-rule="evenodd" d="M141.5 452.4C128.5 450.7 118 448.1 117.3 446.5C116.8 445.1 119.6 419.5 120.4 418.1C120.7 417.7 123.5 417 126.6 416.6C129.6 416.3 135.8 414.6 140.1 412.9C144.5 411.2 148.4 410.1 148.8 410.4C149.1 410.8 148.2 414.8 146.7 419.3C145.2 423.9 144 428.1 144 428.7C144 429.3 146.6 431.2 149.7 433C155.6 436.4 169 448.7 169 450.8C169 454.2 158.7 454.8 141.5 452.4ZM30.8 452.4C30.3 452 30 451 30 450.3C30 448.1 38.8 439.2 46.8 433.3C55 427.2 54.9 427.7 52.5 413.5C51 404.6 50.6 397 51.5 397C51.7 397 55 399 58.7 401.4C62.4 403.8 68.5 407.1 72.2 408.8L79 411.9L79 421.7C79 427.1 79.3 434.5 79.6 438.2L80.3 444.8L77.2 446.4C71.1 449.5 57.7 452.1 44.5 452.7C37.3 453 31.2 452.9 30.8 452.4ZM105 414C81.1 411.6 52.9 397.7 37.1 380.4C15.7 357 6.2 325.1 11.5 294.6C14.7 276.2 21.8 259.4 37.5 233C45 220.5 52.7 204.6 55.4 196.3C56.4 193.4 57.5 190.8 57.9 190.5C59 189.9 65.7 217.5 67.1 228.5C69.7 248.4 66.5 269.4 56.7 297C53.7 305.5 50.5 314.8 49.7 317.5C42.3 341.3 45.1 362.9 57.8 379C66.2 389.7 80 399 92.4 402.1C101.3 404.3 106.3 405.1 107.9 404.4C108.8 404 110.6 403.8 112 403.9C116.2 404.2 127.3 400.2 133.6 396.2C145 388.8 152.7 377.1 155.6 362.6C158 351 156.5 341.5 150.4 329.1C146.3 320.8 144.3 318.2 134.6 308.5C126.2 300.1 120.2 295.2 110.2 288.5C97.7 280.3 96.9 279.6 97.5 277.2C100.6 264.7 100.5 255.8 97 243.3C94.2 233.3 88.8 221.9 78.2 203.8C67.4 185.4 64.1 178.8 60.6 169.2C55.5 155 53.7 136.6 56.1 123.4C62 90.7 82.1 52.7 112.1 17.4C119.5 8.7 121.6 8 120.6 14.2C119.2 23.8 118.8 47.8 119.9 56.5C122.1 74.2 127.3 88.9 135.5 100C140.7 107.1 150.3 115.8 165.3 127C173 132.6 182.9 140.9 187.5 145.2C219.9 175.8 228.7 213.5 216.5 268.5C215 275.1 213.3 281.1 212.7 281.7C211.7 282.7 210 281.6 204.5 276.9C190 264.3 177.3 258.6 164 258.5C156.6 258.5 154.7 258.9 149.7 261.4C146.5 262.9 143.6 264.9 143.3 265.7C142.9 266.7 145.5 269.7 150.8 274.6C160.1 283.2 161.7 286.1 169.1 307.6C176.7 330 183.5 342.4 192.9 350.7L196.5 353.9L192 362.6C181.7 382.6 162.7 402.2 148 407.9C135 413 118.6 415.3 105 414ZM202.2 354.4C200.5 353.5 196.3 349.9 193.1 346.5C186.3 339.2 177.5 322.3 171.5 305C165.2 287 162.5 282.3 154.1 274.2C146.9 267.2 146.6 266.7 148.5 265.4C151.9 262.9 158.2 261.8 166.2 262.2C172.6 262.6 175.2 263.3 182.5 266.8C199.9 275.2 219.2 291.5 224.6 302.5C227.3 308.1 227.5 309.3 227.5 320C227.5 329.6 227.1 332.4 225.1 337.3C222.4 344.2 217.6 350.6 213.1 353.7C209.1 356.4 206.7 356.5 202.2 354.4ZM133.5 231.8C141.3 225.7 140.7 209.9 132.6 204.9C128.4 202.3 126.4 202.5 122 206C117.8 209.3 115.3 215.9 117.1 219.2C117.6 220.2 117.8 221.5 117.5 222C116.5 223.5 119.6 229.5 122.5 231.8C126 234.6 130 234.6 133.5 231.8ZM188.6 231.5C193.6 228.3 195.7 216.3 192.4 209.7C189.1 203.2 184.3 201.5 178.1 204.6C173.7 206.8 171.8 211.6 172.3 219C172.9 225.4 173.7 227.5 177.2 230.6C181.1 234.2 183.9 234.4 188.6 231.5ZM191.6 192.6C189.4 189.2 185.7 186.8 182.3 186.6C178 186.4 178.5 188.3 183 189.8C185.3 190.6 188.1 192.5 189.2 194.1C191.9 197.8 194.1 196.4 191.6 192.6ZM124.2 194C126.3 192.7 129.3 192 132.3 192C135.6 192 137 191.6 136.8 190.8C136.2 189 131.3 188 127.8 189.1C124.7 190 120 193.6 120 195.2C120 196.4 120.6 196.2 124.2 194Z"/><path fill="#f8f6de" stroke="#f8f6de" stroke-width="1.2" stroke-linejoin="round" fill-rule="evenodd" d="M105.5 417.3C80.1 414.2 60.7 405.7 45.7 391.2C37.7 383.5 36.4 380.5 43.6 386.7C70 409.4 104.8 419.2 134.3 412.1C139.1 411 144.4 409.3 146 408.5C147.6 407.7 149.5 407 150.2 407C153 407 148.2 409.9 140.5 412.8C129 417.1 116.8 418.7 105.5 417.3ZM110 403.7C110 403.5 112.2 401.1 114.9 398.3C124.9 387.9 130.2 370.5 128.1 354.9C126.7 344.5 124 336.6 117.4 324.1C112 314 97.3 291.3 94.6 289.1C93.5 288.2 92.7 288.8 90.7 292.2C89.3 294.6 84.1 302.1 79 309C63.7 329.8 60.5 337.9 61.2 354.4C61.5 363.9 61.8 365.1 65.8 373.2C70.5 383 80.1 393.7 88.4 398.5C94.7 402.2 93 402.8 85.2 399.7C75.3 395.6 64.4 387.4 57.8 379C45.1 362.9 42.3 341.3 49.7 317.5C50.5 314.8 53.7 305.5 56.7 297C69.9 259.6 71.1 238.8 61.8 203C54.7 175.6 53.9 170.7 53.3 152.2C52.9 139.8 53.1 135 53.9 135C54.6 135 55 136.9 55 139.9C55 147.1 57.6 160.9 60.6 169.2C64.1 178.8 67.4 185.4 78.2 203.8C98.8 239 103 255.1 97.5 277.2C96.9 279.6 97.7 280.3 110.2 288.5C120.2 295.2 126.2 300.1 134.6 308.5C144.3 318.2 146.3 320.8 150.4 329.1C156.5 341.5 158 351 155.6 362.6C151.7 381.9 139 396.5 121.2 402C115.6 403.8 110 404.6 110 403.7ZM197.5 354C196.4 353.5 194.1 351.8 192.4 350.3C183.5 342.3 176.5 329.5 169.1 307.6C161.7 286.1 160.1 283.2 150.8 274.6C145.5 269.7 142.9 266.7 143.3 265.7C143.6 264.9 146.5 262.9 149.7 261.4C154.7 258.9 156.6 258.5 164 258.5C173.8 258.6 180.4 260.6 190.9 266.9C199 271.7 210.5 281.6 213.3 286.1L215.4 289.5L212 286.7C199.8 276.9 191.3 271.2 183.2 267.2C175.2 263.3 172.8 262.6 166.2 262.2C158.2 261.8 151.9 262.9 148.5 265.4C146.6 266.7 146.9 267.2 154.1 274.2C162.5 282.3 165.2 287 171.5 305C173.5 310.8 177.9 321.1 181.3 328C186.3 338.3 188.6 341.7 194.2 347.5C202.2 355.7 202.5 356.2 197.5 354ZM122.5 231.8C119.7 229.6 116.5 223.6 117.4 222.1C117.7 221.6 119 221.5 120.3 221.7C125.7 222.8 129.1 212.9 125 207.8C121.5 203.3 126.7 201.3 132.6 204.9C140.7 209.9 141.3 225.7 133.5 231.8C130 234.6 126 234.6 122.5 231.8ZM180.5 233C177.8 231.9 174.4 228.1 173.1 224.7C171.8 221.2 172.6 219.4 174.6 221.1C175.8 222.1 176.6 221.9 178.8 220.3C181 218.7 181.6 217.4 181.8 213.5C182 210.2 181.6 208.3 180.5 207C178.3 204.5 179.4 203 183.3 203C189.5 203.1 194 209.4 194 218C194 228.1 187.1 235.8 180.5 233ZM189.2 194.1C188.1 192.5 185.3 190.6 183 189.8C178.5 188.3 178 186.4 182.3 186.6C185.7 186.8 189.4 189.2 191.6 192.6C194.1 196.4 191.9 197.8 189.2 194.1ZM120 195.2C120 193.6 124.7 190 127.8 189.1C131.3 188 136.2 189 136.8 190.8C137 191.6 135.6 192 132.3 192C129.3 192 126.3 192.7 124.2 194C120.6 196.2 120 196.4 120 195.2Z"/><path fill="#eaae0c" stroke="#eaae0c" stroke-width="1.2" stroke-linejoin="round" fill-rule="evenodd" d="M99.9 404.1C94.3 403 84.1 396.2 76.7 388.7C71.8 383.7 68.8 379.5 65.8 373.2C61.8 365.1 61.5 363.9 61.2 354.4C60.5 337.9 63.7 329.8 79 309C84.1 302.1 89.3 294.6 90.7 292.2C92.7 288.8 93.5 288.2 94.6 289.1C97.3 291.3 112 314 117.4 324.1C127.4 343.2 130.3 356.3 127.6 371.5C125.6 383.2 121.3 391.9 113.8 399.2C107.8 405.2 107 405.5 99.9 404.1ZM155.5 93.5C151.1 89.2 153.4 83 159.4 83C165.8 83 168.4 90 163.4 93.9C160 96.6 158.4 96.5 155.5 93.5ZM168.1 71.4C165.5 69.2 165 68.1 165 64.5C165 58.3 168.2 54.8 173.9 54.6C177.5 54.5 178.6 55 181.1 57.8C185.5 62.7 184.5 69.7 178.9 72.6C174.8 74.7 171.5 74.3 168.1 71.4ZM176.4 41.2C167.6 35.6 168.5 22.8 178.1 17.9C182.9 15.5 185.1 15.5 190 18C194.8 20.4 197 24.4 197 30.5C197 34.2 196.4 35.7 193.7 38.7C190.8 41.8 189.6 42.4 184.9 42.7C180.8 43 178.8 42.7 176.4 41.2Z"/><path fill="#0b0b0e" stroke="#0b0b0e" stroke-width="1.2" stroke-linejoin="round" fill-rule="evenodd" d="M117.5 219.7C116.3 217.9 116.3 216.6 117.1 213.5C119.1 206.3 122.6 204.1 125.4 208.2C127.6 211.3 127.4 216.2 124.9 219.4C122.4 222.6 119.5 222.7 117.5 219.7ZM173.7 220.2C171.6 217.9 171.5 214 173.5 209.5C176.4 202.3 182 204.7 182 213.1C182 217 181.6 218.2 179.4 219.9C176.1 222.5 175.7 222.5 173.7 220.2Z"/></svg>
