<svg xmlns="http://www.w3.org/2000/svg" viewBox="0 0 180 210" role="img" aria-labelledby="title"><title id="title">Maia celebrating</title><path fill="#2b4acb" d="M96 8c-7 27-4 45 13 61 22 21 39 42 37 74-2 35-24 58-58 58-37 0-61-24-60-59 1-21 13-38 28-56C74 64 85 42 96 8Z"/><path fill="#2b4acb" d="M37 116 7 91l10 47 27 13Zm103-1 31-27-12 49-25 14Z"/><path fill="#fff9ed" d="M55 78c3 29 14 43 35 55 18 11 19 32 1 55-30-10-43-33-35-57 4-13 5-30-1-53Z"/><path fill="#d9a514" d="M88 129c19 17 19 34 2 55-17-8-22-22-15-35 3-7 8-13 13-20Z"/><path d="M70 96q8-9 16 0m15 0q8-9 16 0M83 119q9 8 18 0" fill="none" stroke="#fff9ed" stroke-linecap="round" stroke-width="3"/><path d="m88 27 5 12 12 5-12 5-5 12-5-12-12-5 12-5Z" fill="#d9a514"/></svg>
