<svg xmlns="http://www.w3.org/2000/svg" viewBox="0 0 247 482" role="img" aria-labelledby="title"><title id="title">Maia thinking</title><path fill="#1953c8" stroke="#1953c8" stroke-width="1.2" stroke-linejoin="round" fill-rule="evenodd" d="M153.7 471.9C144.4 470.9 131 468.1 128 466.6L125.5 465.4L125.8 449.5C126 440.7 126.3 433.4 126.4 433.3C126.6 433.1 130.1 432.1 134.4 431C138.7 429.9 144.9 427.7 148.3 426.1C151.7 424.5 154.7 423.3 154.9 423.6C155.2 423.9 154.4 429.2 153.1 435.5C151.9 441.8 151.1 447.3 151.4 447.9C151.8 448.4 154.6 450.3 157.7 452.1C164.1 455.8 176 467 176 469.3C176 472.9 169.1 473.7 153.7 471.9ZM38.4 470.7C37.2 467.5 46.3 457.7 57.5 450C60.1 448.2 62 446.1 62 445.1C62 444.1 60.9 437.3 59.5 430C58.1 422.7 57.2 416.5 57.4 416.3C57.6 416 59.6 417 61.7 418.3C67.7 422.1 77 426.6 81.7 428L85.9 429.3L86.5 436.4C86.8 440.3 87.2 448 87.3 453.5L87.5 463.4L83.7 465.2C76.9 468.5 63.8 471.1 51.3 471.7C40.6 472.2 39 472.1 38.4 470.7ZM94.5 428.3C79.7 425.2 63.5 417.1 49.6 406.1C41.1 399.3 35 392.4 28 381.8C21.3 371.7 17.1 362.1 13.4 348.4C11.1 339.8 10.7 336.5 10.7 323C10.6 310.2 11 306 12.8 298.7C17.7 279.2 22.6 268 37.4 242.8C48.3 224.2 50.4 219.8 54 209.3C55.6 204.5 57.3 200.4 57.7 200.3C58.2 200.1 60 203.9 61.8 208.7C75 244.2 75.2 272.2 62.4 309.2C53.7 334.6 51.2 342.7 50 350.4C46.1 374.5 55.8 397.1 76 410.5C79.7 413 85 415.9 87.7 416.9C90.3 418 93.4 419.2 94.5 419.6C95.6 420 97 420.4 97.5 420.5C98 420.6 100.4 421.2 102.8 421.9C107.3 423.2 116.4 422.7 123.5 420.8C138.9 416.8 152.5 403.6 158.2 387.3C160 381.9 160.5 378.5 160.4 370.5C160.3 359.3 158.5 352.8 152.8 343.2C145.7 331.4 127 314.4 109.2 303.5C104.1 300.4 102.9 299.2 103.3 297.6C106.2 285.2 107 280.1 107 271.5C107 266 106.3 258.6 105.5 255C103.1 244.9 94.2 227.9 85.1 216C63.9 188.4 60.7 184 57 176.5C49.7 161.6 47.5 146.2 50.4 130.7C56.5 98.4 79.6 61.3 116.3 24.7C124.8 16.2 131.6 10.2 132.1 10.7C132.6 11.2 131.5 18.4 129.5 27.5C124.5 50.8 123.7 57.6 124.3 71.8C124.7 81.9 125.3 86 127.3 91.8C131.7 104.6 135.3 109.2 159.1 133.5C171.5 146.1 184.1 159.7 187.2 163.5C206.4 187.8 216.9 210.8 222.7 241.5C224.8 252.4 225.1 292.6 223.1 297.4L222 300.2L215.2 293.5C198.1 276.2 175.4 264 162.8 265.2C157.8 265.7 158.2 268 164.5 276.9C168.8 283.1 170.5 286.6 172 292.6C173.1 296.8 175.1 302.8 176.5 305.9C179.9 313.3 188.2 327 189.3 327C189.8 327 190 326.7 189.8 326.2C189.6 325.8 186.9 320.3 183.8 314C180.7 307.7 177 298.6 175.6 293.8C173.9 288 171.5 282.7 168.1 277.4C164.9 272.5 163.3 269.3 163.9 268.7C164.5 268.1 166.7 268.2 169.7 268.9C189.2 273.8 224.8 301.6 233.1 318.5C236.3 325.1 236.5 326 236.5 336C236.5 345.5 236.2 347.1 233.7 352.2C228.8 362.2 221.1 367 210.1 367C205.3 367 204.8 367.2 203.2 370.2C198.4 379.1 187.3 394.4 180.7 401.2C172.8 409.2 157.8 421 155.4 421C154.6 421 152.1 421.9 149.8 423.1C147.6 424.2 141.4 426.3 136.2 427.6C124.9 430.5 106 430.8 94.5 428.3ZM142.8 252.4C146.8 249.6 148.3 245.4 147.5 238.6C146.6 229.8 143.6 224.9 138 223.1C132.6 221.4 129.4 222.7 126.7 228C123.1 234.9 126.7 248 133.3 252C137.2 254.4 139.8 254.5 142.8 252.4ZM194.9 238.3C198 234.5 198.4 231.7 197.2 224.2C195.8 215.7 192.2 211.7 185.8 211.4C180.4 211.1 178.7 212.1 176.6 216.4C174.6 220.7 174.6 224.4 176.6 230.3C179.9 240 190.1 244.5 194.9 238.3ZM121.4 214.9C121.7 213.2 123.3 210.6 125 209C129.8 204.6 128.7 202.1 123.7 206C120.9 208.2 117.4 216.2 118.5 217.9C119.5 219.6 120.7 218.4 121.4 214.9ZM190.1 193.2C186.5 188.1 177.5 185.1 177.5 189C177.5 189.9 178.9 190.7 181.5 191.1C184.3 191.6 186.2 192.7 188 194.9C191.1 198.8 193.1 197.3 190.1 193.2Z"/><path fill="#f8f6de" stroke="#f8f6de" stroke-width="1.2" stroke-linejoin="round" fill-rule="evenodd" d="M104.5 433C84.1 431.2 64.4 422.4 49.5 408.7C39.3 399.3 38 396.3 47.6 404.4C62.1 416.6 79 425.1 95.2 428.4C107.2 430.9 124.6 430.5 136.2 427.6C141.4 426.3 147.6 424.2 149.9 423C152.3 421.9 154.9 421 155.8 421.3C158.4 421.8 143.1 428.8 134.8 430.9C125.7 433.2 114.9 433.9 104.5 433ZM113.6 422.3C113.4 422.1 115.4 419.9 118 417.4C127.6 408.4 133.7 390.9 132.6 375.7C131.9 366.3 127.5 352.4 121.8 342C117.7 334.5 102.9 311.7 100.5 309.1C99.4 308 98.5 308.8 95.2 313.6C93 316.9 87.5 324 82.8 329.6C68.8 346.2 64.8 355.4 64.8 370.3C64.9 379.9 67.4 389.1 72.1 396.5C76.3 403.2 88.5 415 93.7 417.5C96.1 418.6 98 419.8 98 420.2C98 421.2 97.3 421.2 95.2 420.1C94.3 419.6 91.1 418.2 88.2 417.1C76.3 412.5 63.4 401.7 57.3 391.2C53 383.9 50 374.2 49.3 365.9C48.3 352.6 50 345.1 62.4 309.2C73.1 278.2 74.6 252.8 67.4 226C66 220.8 62 209.1 58.5 200C51.7 182.5 48 167.1 48 157.1C48 149.8 49.5 149 50.3 155.9C51.8 168.3 58.7 182.1 71.7 198.7C89.1 220.8 93.4 227 98.5 237.5C105.1 250.8 107 258.4 107 271.5C107 280.1 106.2 285.2 103.3 297.6C102.9 299.2 104.1 300.4 109.2 303.5C127 314.4 145.7 331.4 152.8 343.2C158.5 352.8 160.3 359.3 160.4 370.5C160.5 378.5 160 381.9 158.2 387.3C153.5 400.9 144 411.7 131.5 417.6C125.2 420.6 114.7 423.3 113.6 422.3ZM183.7 319.2C177.5 308.8 174.4 301.8 172 292.6C170.5 286.6 168.8 283.1 164.5 276.9C158.2 268 157.8 265.7 162.8 265.2C175.7 263.9 198.2 276.3 216.2 294.4C226.5 304.9 227 307.9 216.8 298.7C205.2 288.1 191.6 278.3 182.5 274C173.3 269.5 165.3 267.3 163.9 268.7C163.3 269.3 164.9 272.5 168.1 277.4C171.5 282.7 173.9 288 175.6 293.8C177 298.6 180.7 307.7 183.8 314C186.9 320.3 189.6 325.8 189.8 326.2C190 326.7 189.8 327 189.3 327C188.8 327 186.3 323.5 183.7 319.2ZM133.3 252C126.7 248 123.1 234.9 126.7 228C128.8 224.1 132.9 221.4 135.4 222.3C136.7 222.8 136.9 223.4 136 224.9C134 228.8 134.8 233.9 137.9 237.1C141.2 240.3 143.1 240.7 145 238.5C146.8 236.4 148 237.6 148 241.6C148 247.9 143.3 254 138.5 254C137.4 254 135.1 253.1 133.3 252ZM181.7 238C178 234.8 175 227.9 175 222.7C175 216.6 179.7 210.4 183.8 211.2C185.1 211.4 185.4 212.5 185.1 216.2C184.8 221.5 186 224.3 189.5 226.6C191.8 228.1 192.2 228.1 194.4 226.7C195.7 225.8 197 225.4 197.4 225.7C198.8 227.2 197.9 233.9 195.7 237.1C193.8 239.9 192.7 240.6 189.3 240.8C185.9 241.1 184.6 240.6 181.7 238ZM118.5 217.9C117.4 216.2 120.9 208.2 123.7 206C128.7 202.1 129.8 204.6 125 209C123.3 210.6 121.7 213.2 121.4 214.9C120.7 218.4 119.5 219.6 118.5 217.9ZM188 194.9C186.2 192.7 184.3 191.6 181.5 191.1C178.9 190.7 177.5 189.9 177.5 189C177.5 185.1 186.5 188.1 190.1 193.2C193.1 197.3 191.1 198.8 188 194.9Z"/><path fill="#eaae0c" stroke="#eaae0c" stroke-width="1.2" stroke-linejoin="round" fill-rule="evenodd" d="M104 422.4C93.7 419.2 78.7 407 72.1 396.5C67.4 389.1 64.9 379.9 64.8 370.3C64.8 355.4 68.8 346.2 82.8 329.6C87.5 324 93 316.9 95.2 313.6C98.5 308.8 99.4 308 100.5 309.1C102.9 311.7 117.7 334.5 121.8 342C127.5 352.4 131.9 366.3 132.6 375.7C133.8 391.5 127.5 408.7 117.3 418C111.9 422.9 108.9 423.9 104 422.4ZM176.2 113.4C172.9 111.1 173.1 104.8 176.6 102.1C180.1 99.4 182.5 99.5 185.5 102.5C192 109 183.8 118.7 176.2 113.4ZM181.4 87.5C181 86.7 181.1 84.3 181.5 82.3C182 79.4 184.2 76.6 192 68.9C199.8 61.3 202.1 58.4 203 55.1C205.6 45.4 198.5 37.7 189.3 40.2C184.8 41.4 182.6 43.2 179.3 48.3C177.5 51.1 176.3 52 174.7 51.8C171.3 51.3 171.9 45 175.7 40.2C181.8 32.7 191.9 29.9 200.3 33.4C204.7 35.2 209.7 41.1 211 46.2C213.6 55.8 209.6 64.2 197.2 74.4C191.6 79 188.7 82.2 187.6 85C185.9 89.2 182.5 90.5 181.4 87.5Z"/><path fill="#0b0b0e" stroke="#0b0b0e" stroke-width="1.2" stroke-linejoin="round" fill-rule="evenodd" d="M137.9 237.1C134.6 233.8 133.9 227.9 136.4 224.5C137.6 222.9 138.2 222.8 140.3 223.7C143 225 147 231.6 147 234.8C147 236.9 144.1 240 142.1 240C141.4 240 139.5 238.7 137.9 237.1ZM187.9 225.1C185.6 222.7 185 221.3 185 217.6C185 214 185.4 212.8 187.1 211.9C188.9 211 189.7 211.3 192.6 214.1C197.1 218.5 198.2 223.6 195 226.2C192 228.6 191.3 228.5 187.9 225.1Z"/></svg>
