<svg xmlns="http://www.w3.org/2000/svg" viewBox="0 0 1672 941"><rect x="0" y="0" width="1672" height="941" fill="#f904f6"/><path fill="#1953c8" stroke="#1953c8" stroke-width="1.2" stroke-linejoin="round" fill-rule="evenodd" d="M758.4 679.6C757.3 676.7 758.9 669.1 762.5 659.9L766 651.1L761.8 642.6C759.5 637.9 757.8 633.8 758.1 633.5C758.4 633.2 762.2 634.6 766.6 636.6C770.9 638.6 779.1 641.4 784.7 642.8C794.2 645.2 795 645.5 795 647.8C795 651 787.5 662.3 781.4 668.4C771.6 678.1 760 683.8 758.4 679.6ZM1183.5 678.4C1170.5 676.7 1160 674.1 1159.3 672.5C1158.8 671.1 1161.6 645.5 1162.4 644.1C1162.7 643.7 1165.5 643 1168.6 642.6C1171.6 642.3 1177.8 640.6 1182.1 638.9C1186.5 637.2 1190.4 636.1 1190.8 636.4C1191.1 636.8 1190.2 640.8 1188.7 645.3C1187.2 649.9 1186 654.1 1186 654.7C1186 655.3 1188.6 657.2 1191.7 659C1197.6 662.4 1211 674.7 1211 676.8C1211 680.2 1200.7 680.8 1183.5 678.4ZM1381.1 679.2C1379.7 678.8 1378.5 677.9 1378.3 677.3C1377.5 675.1 1385.5 667.7 1395.2 661.3C1405.8 654.4 1405.2 655.5 1406.5 642.6C1406.8 639.3 1407.2 636.4 1407.4 636.2C1407.6 636 1409.8 636.9 1412.2 638.1C1414.5 639.3 1419.9 641.3 1424 642.5L1431.5 644.7L1431.2 648.1C1430.9 651.4 1428.5 666.2 1427.5 670.7C1427.2 671.9 1426 673.4 1424.9 674.1C1419.3 677 1386.6 680.9 1381.1 679.2ZM1500.5 679.3C1492.4 678.6 1476.5 675.8 1475.2 674.8C1474.4 674 1474 669.6 1474 659L1474 644.2L1479.2 642.4C1485.2 640.5 1495.2 635.7 1499.3 632.8C1500.9 631.7 1502.3 630.9 1502.5 631.1C1502.6 631.3 1502.2 634.9 1501.4 639C1500.7 643.1 1499.7 648.6 1499.4 651.1L1498.7 655.8L1508.6 662.2C1518.4 668.6 1525.4 675.2 1524.7 677.3C1524.5 677.9 1523.3 678.7 1521.9 679.1C1519.4 679.8 1507.7 679.9 1500.5 679.3ZM546.7 677.9C537.4 676.9 524 674.1 521 672.6L518.5 671.4L518.8 655.5C519 646.7 519.3 639.4 519.4 639.3C519.6 639.1 523.1 638.1 527.4 637C531.7 635.9 537.9 633.7 541.3 632.1C544.7 630.5 547.7 629.3 547.9 629.6C548.2 629.9 547.4 635.2 546.1 641.5C544.9 647.8 544.1 653.3 544.4 653.9C544.8 654.4 547.6 656.3 550.7 658.1C557.1 661.8 569 673 569 675.3C569 678.9 562.1 679.7 546.7 677.9ZM1072.8 678.4C1072.3 678 1072 677 1072 676.3C1072 674.1 1080.8 665.2 1088.8 659.3C1097 653.2 1096.9 653.7 1094.5 639.5C1093 630.6 1092.6 623 1093.5 623C1093.7 623 1097 625 1100.7 627.4C1104.4 629.8 1110.5 633.1 1114.2 634.8L1121 637.9L1121 647.7C1121 653.1 1121.3 660.5 1121.6 664.2L1122.3 670.8L1119.2 672.4C1113.1 675.5 1099.7 678.1 1086.5 678.7C1079.3 679 1073.2 678.9 1072.8 678.4ZM431.4 676.7C430.2 673.5 439.3 663.7 450.5 656C453.1 654.2 455 652.1 455 651.1C455 650.1 453.9 643.3 452.5 636C451.1 628.7 450.2 622.5 450.4 622.3C450.6 622 452.6 623 454.7 624.3C460.7 628.1 470 632.6 474.7 634L478.9 635.3L479.5 642.4C479.8 646.3 480.2 654 480.3 659.5L480.5 669.4L476.7 671.2C469.9 674.5 456.8 677.1 444.3 677.7C433.6 678.2 432 678.1 431.4 676.7ZM245 676C233.9 675.2 219.7 672.7 214.3 670.5L211.1 669.1L211.7 654.3C212 646.2 212.6 638.8 213.1 637.9C213.6 637 215.7 636 218 635.6C222.1 635 231.3 631.7 234 630C237.2 628 234 628.2 226.7 630.5C192.5 641.4 152 629.7 124.9 601.2C112.1 587.8 103.8 572.2 98.8 552.3C96.9 544.9 96.6 540.8 96.6 526C96.6 510.4 96.9 507.3 99.3 497.8C103.1 482.5 107.5 471.6 120.6 445.7C126.9 433.2 133.6 418.3 135.5 412.7C137.4 407.1 139.3 402.4 139.8 402.2C140.6 402 150 424.3 151.4 430C155.6 446.7 157 460.7 155.9 475.5C154.8 489.3 152.4 499.2 144.4 522.9C136.5 546.3 135 552.7 135 564.5C135 574.9 136.8 582.7 141.2 592C147.4 604.8 166.2 620.2 179.1 623C181.5 623.5 186 624.6 189 625.4C201.2 628.9 218.6 623.9 229.7 613.7C244.4 600.3 250.2 578 244.1 559.1C238.1 540.9 220.7 522.5 194.6 506.9C186.4 502 186.2 501.7 187.1 499.2C189.3 493.5 191 482.4 191 474.1C191 453 182.6 435.1 160.3 408.8C145.3 391.2 139.8 382.5 135.5 369.9C127.6 346.9 131.6 319.7 147.4 288.5C154.8 273.9 167.6 254.2 178.7 240.5C189.5 227.1 205.1 210.7 206.1 211.7C206.6 212.2 206.3 216.6 205.4 221.5C197.1 272.4 201.4 297.2 222.5 318.5C226.9 323 237.2 332 245.5 338.5C275.7 362.5 289.3 377.6 300.4 399.6C326 450.5 325.3 510.5 298.5 563C284.9 589.5 268.6 607.8 243.4 624.8C242.9 625.2 241.4 630.5 240.1 636.5C238.9 642.5 237.6 648.4 237.4 649.6C236.9 651.3 238.1 652.5 244.2 656.3C248.3 658.8 254 663.4 256.8 666.4C265.6 675.7 263.9 677.2 245 676ZM125.7 675.3C123 672.7 131.3 662.9 143 655C147.9 651.7 149.1 650.4 148.6 648.8C147.2 643 143.7 622 144.2 621.5C144.5 621.2 147.8 622.7 151.5 624.9C155.3 627.1 161.5 630.1 165.5 631.5L172.6 634.1L173.7 650.3C174.5 661.7 174.6 666.8 173.8 667.7C172.5 669.4 162.3 672.5 151.9 674.5C143.7 676 126.9 676.6 125.7 675.3ZM889.8 672.5C879.1 669.6 865.3 661.2 857.6 653.2C855.1 650.4 854.9 649.8 855.7 646.4C856.5 642.8 856.9 642.5 864 640C873.2 636.7 887 630.1 887 628.9C887 627.7 887.1 627.6 878.8 631.5C859.9 640.2 841.4 643.4 814.6 642.7C791.5 642.2 780.4 639.7 764.5 632C741.4 620.6 727.3 603.9 720.8 579.9C718.9 573 718.5 569 718.5 557C718.6 537.1 721.7 524 731.3 503.7L736.4 492.9L725.3 470.2C710.2 439.5 704.2 423.4 700.4 403.8C697.8 390.4 698.3 390.3 711.3 402.2C717.6 407.9 726.5 415.6 731.1 419.4C739.2 425.9 759.3 440 760.4 440C760.7 440 761.7 438.5 762.6 436.8L764.3 433.5L765.3 436.5C765.8 438.1 766.3 445.4 766.3 452.5C766.4 472.1 763.9 480.6 747 517C737.2 538.2 734.9 546.4 734.3 561.7C733.8 572.3 734.1 574.8 736 581.2C737.2 585.2 739.6 591.1 741.3 594.3C747.8 606.6 764.2 620.7 776.6 624.5C779.3 625.4 783.5 626.7 786 627.5C788.6 628.3 794.4 628.9 799.7 628.9C815.6 628.9 825.5 625.1 836.5 614.9C848.3 603.8 853.6 590.8 852.8 575C851.8 556.9 842.5 541.3 821.9 523.1C816.7 518.5 808.4 511.1 803.3 506.6L794.2 498.5L794.1 487.5C793.9 468.1 789.9 456 773.7 426.1C760.2 401.2 756.8 391.8 755.4 376C754.2 361.8 758.7 338.2 766.5 318C774.7 296.9 791.5 267.7 806 249.6C812.5 241.3 814.2 241 813.4 248.2C812.5 256.2 814.7 278.4 817.4 288.6C825 316.7 836 330.8 865.9 350.5C887.8 364.9 892.9 368.8 903.5 379.5C917.6 393.5 928.6 411.7 934 429.8C935.7 435.2 936.6 437 938 437C942 437 990.4 413.9 999.8 407.5C1001.8 406.1 1004.3 405 1005.3 405C1006.9 405 1007.1 405.5 1006.5 409.2C1005.3 416.5 1000.1 430 994.5 440.7C988.8 451.6 982.7 460.8 968.1 481C951.3 504.2 945.4 517.6 940 544.2C936.1 563.1 932.3 575.1 926.5 586.3C918.9 601.1 909.5 612.5 897.5 621.5C892.8 625 892.4 625.7 889.8 634.4C888.3 639.4 887 644 887 644.6C887 645.2 889.9 650 893.5 655.4C900.4 665.7 901.9 669.3 900.3 671.9C899 674 895.6 674.2 889.8 672.5ZM1434.2 641.9C1426.7 640.6 1414.5 636.4 1408 632.8C1405 631.1 1401.3 629.1 1399.9 628.4C1398.5 627.6 1393.3 622.8 1388.4 617.8C1375.7 604.7 1367.4 589.5 1361.7 569.2C1359.9 562.6 1359.6 558.7 1359.6 542.5C1359.5 525.7 1359.8 522.5 1361.9 514.5C1365.1 502.2 1371 487.9 1382.5 465C1393.1 443.7 1396.9 434.4 1399.5 422.8C1401.2 415 1402.2 413.5 1403.5 416.8C1412.9 441 1415.5 453.3 1415.5 474.5C1415.5 495.5 1414.4 500.8 1404.5 530.5C1395.5 557.5 1394.6 561.6 1394.6 575.5C1394.6 584.9 1395 587.7 1397.3 594.4C1400.8 604.3 1405.5 611.5 1413.2 618.4C1419.1 623.7 1431.7 630.8 1436.2 631.4C1437.5 631.6 1440.4 632.2 1442.8 632.9C1449.1 634.7 1462.1 633.6 1470 630.8C1483 626.1 1491.8 618.4 1497.8 606.4C1502.1 598.1 1503.3 592.8 1503.3 582.9C1503.2 559.1 1485.8 534.9 1454.1 514.6C1447.4 510.3 1446.8 509.7 1447.4 507.2C1450.5 493.4 1451.2 487.9 1450.7 480C1449.2 458.3 1441.4 443.4 1413.3 408.9C1399.9 392.3 1393.5 379.1 1391 362.4C1387 336.4 1398.6 307.4 1422.5 283.5C1438.1 267.9 1456.2 257 1474.6 252.1C1486 249.1 1492.4 249.4 1487.1 252.7C1486.1 253.3 1482.5 257.3 1479.1 261.5C1463.5 280.9 1460 298.9 1468.6 315.8C1472.8 324.1 1477.4 329 1505.8 355.9C1524.5 373.5 1534 385.5 1542.4 402C1551.7 420.1 1557.1 439.7 1558.9 461.9C1559.4 468.1 1560.3 473.7 1560.9 474.3C1562.9 476.3 1600.7 468.8 1623.3 461.8C1636.9 457.6 1637.7 458.8 1628.1 468.4C1621.6 474.9 1620.9 476 1621.9 477.8C1623.6 480.9 1623.2 487.8 1621.2 491.2C1618.1 496.5 1613.5 498.5 1604.7 498.5L1596.9 498.5L1575.6 519.7L1554.3 541L1552 549.7C1547.3 567.5 1539.2 585.8 1529.2 601C1523.9 609 1505.2 629 1503 629C1502.5 629 1499.8 630.4 1497.1 632C1491.1 635.7 1480.1 639.6 1470.2 641.6C1462.1 643.1 1442.7 643.3 1434.2 641.9ZM1147 640C1123.1 637.6 1094.9 623.7 1079.1 606.4C1057.7 583 1048.2 551.1 1053.5 520.6C1056.7 502.2 1063.8 485.4 1079.5 459C1087 446.5 1094.7 430.6 1097.4 422.3C1098.4 419.4 1099.5 416.8 1099.9 416.5C1101 415.9 1107.7 443.5 1109.1 454.5C1111.7 474.4 1108.5 495.4 1098.7 523C1095.7 531.5 1092.5 540.8 1091.7 543.5C1084.3 567.3 1087.1 588.9 1099.8 605C1108.2 615.7 1122 625 1134.4 628.1C1143.3 630.3 1148.3 631.1 1149.9 630.4C1150.8 630 1152.6 629.8 1154 629.9C1158.2 630.2 1169.3 626.2 1175.6 622.2C1187 614.8 1194.7 603.1 1197.6 588.6C1200 577 1198.5 567.5 1192.4 555.1C1188.3 546.8 1186.3 544.2 1176.6 534.5C1168.2 526.1 1162.2 521.2 1152.2 514.5C1139.7 506.3 1138.9 505.6 1139.5 503.2C1142.6 490.7 1142.5 481.8 1139 469.3C1136.2 459.3 1130.8 447.9 1120.2 429.8C1109.4 411.4 1106.1 404.8 1102.6 395.2C1097.5 381 1095.7 362.6 1098.1 349.4C1104 316.7 1124.1 278.7 1154.1 243.4C1161.5 234.7 1163.6 234 1162.6 240.2C1161.2 249.8 1160.8 273.8 1161.9 282.5C1164.1 300.2 1169.3 314.9 1177.5 326C1182.7 333.1 1192.3 341.8 1207.3 353C1215 358.6 1224.9 366.9 1229.5 371.2C1261.9 401.8 1270.7 439.5 1258.5 494.5C1257 501.1 1255.3 507.1 1254.7 507.7C1253.7 508.7 1252 507.6 1246.5 502.9C1232 490.3 1219.3 484.6 1206 484.5C1198.6 484.5 1196.7 484.9 1191.7 487.4C1188.5 488.9 1185.6 490.9 1185.3 491.7C1184.9 492.7 1187.5 495.7 1192.8 500.6C1202.1 509.2 1203.7 512.1 1211.1 533.6C1218.7 556 1225.5 568.4 1234.9 576.7L1238.5 579.9L1234 588.6C1223.7 608.6 1204.7 628.2 1190 633.9C1177 639 1160.6 641.3 1147 640ZM487.5 634.3C472.7 631.2 456.5 623.1 442.6 612.1C434.1 605.3 428 598.4 421 587.8C414.3 577.7 410.1 568.1 406.4 554.4C404.1 545.8 403.7 542.5 403.7 529C403.6 516.2 404 512 405.8 504.7C410.7 485.2 415.6 474 430.4 448.8C441.3 430.2 443.4 425.8 447 415.3C448.6 410.5 450.3 406.4 450.7 406.3C451.2 406.1 453 409.9 454.8 414.7C468 450.2 468.2 478.2 455.4 515.2C446.7 540.6 444.2 548.7 443 556.4C439.1 580.5 448.8 603.1 469 616.5C472.7 619 478 621.9 480.7 622.9C483.3 624 486.4 625.2 487.5 625.6C488.6 626 489.9 626.4 490.5 626.5C491.1 626.6 493.4 627.2 495.8 627.9C500.3 629.2 509.4 628.7 516.5 626.8C531.9 622.8 545.5 609.6 551.2 593.3C553 587.9 553.5 584.5 553.4 576.5C553.3 565.3 551.5 558.8 545.8 549.2C538.7 537.4 520 520.4 502.2 509.5C497.1 506.4 495.9 505.2 496.3 503.6C499.2 491.2 500 486.1 500 477.5C500 472 499.3 464.6 498.5 461C496.1 450.9 487.2 433.9 478.1 422C456.9 394.4 453.7 390 450 382.5C442.7 367.6 440.5 352.2 443.4 336.7C449.5 304.4 472.6 267.3 509.3 230.7C517.8 222.2 524.6 216.2 525.1 216.7C525.6 217.2 524.5 224.4 522.5 233.5C517.5 256.8 516.7 263.6 517.3 277.8C517.7 287.9 518.3 292 520.3 297.8C524.7 310.6 528.3 315.2 552.1 339.5C564.5 352.1 577.1 365.7 580.2 369.5C599.4 393.8 609.9 416.8 615.7 447.5C617.8 458.4 618.1 498.6 616.1 503.4L615 506.2L608.2 499.5C591.1 482.2 568.4 470 555.8 471.2C550.8 471.7 551.2 474 557.5 482.9C561.8 489.1 563.5 492.6 565 498.6C566.1 502.8 568.1 508.8 569.5 511.9C572.9 519.3 581.2 533 582.3 533C582.8 533 583 532.7 582.8 532.2C582.6 531.8 579.9 526.3 576.8 520C573.7 513.7 570 504.6 568.6 499.8C566.9 494 564.5 488.7 561.1 483.4C557.9 478.5 556.3 475.3 556.9 474.7C557.5 474.1 559.7 474.2 562.7 474.9C582.2 479.8 617.8 507.6 626.1 524.5C629.3 531.1 629.5 532 629.5 542C629.5 551.5 629.2 553.1 626.7 558.2C621.8 568.2 614.1 573 603.1 573C598.3 573 597.8 573.2 596.2 576.2C591.4 585.1 580.3 600.4 573.7 607.2C565.8 615.2 550.8 627 548.4 627C547.6 627 545.1 627.9 542.8 629.1C540.6 630.2 534.4 632.3 529.2 633.6C517.9 636.5 499 636.8 487.5 634.3ZM1244.2 580.4C1242.5 579.5 1238.3 575.9 1235.1 572.5C1228.3 565.2 1219.5 548.3 1213.5 531C1207.2 513 1204.5 508.3 1196.1 500.2C1188.9 493.2 1188.6 492.7 1190.5 491.4C1193.9 488.9 1200.2 487.8 1208.2 488.2C1214.6 488.6 1217.2 489.3 1224.5 492.8C1241.9 501.2 1261.2 517.5 1266.6 528.5C1269.3 534.1 1269.5 535.3 1269.5 546C1269.5 555.6 1269.1 558.4 1267.1 563.3C1264.4 570.2 1259.6 576.6 1255.1 579.7C1251.1 582.4 1248.7 582.5 1244.2 580.4ZM1488.4 461.1C1494.5 455.7 1495.3 438.9 1489.5 435.6C1488.4 435 1487 433.9 1486.4 433.1C1484.8 431.1 1479.4 431.3 1476.9 433.6C1473.4 436.8 1472 440.6 1472 447C1472 460 1480.9 467.7 1488.4 461.1ZM1537.9 458.5C1539.6 456.5 1541.1 454.4 1541.1 453.7C1542.3 442.9 1541.3 437.7 1537.2 433.9C1533.4 430.2 1530.7 429.6 1527 431.5C1520.7 434.8 1518.2 446.3 1521.9 454.6C1525.6 462.8 1532.6 464.5 1537.9 458.5ZM535.8 458.4C539.8 455.6 541.3 451.4 540.5 444.6C539.6 435.8 536.6 430.9 531 429.1C525.6 427.4 522.4 428.7 519.7 434C516.1 440.9 519.7 454 526.3 458C530.2 460.4 532.8 460.5 535.8 458.4ZM1175.5 457.8C1183.3 451.7 1182.7 435.9 1174.6 430.9C1170.4 428.3 1168.4 428.5 1164 432C1159.8 435.3 1157.3 441.9 1159.1 445.2C1159.6 446.2 1159.8 447.5 1159.5 448C1158.5 449.5 1161.6 455.5 1164.5 457.8C1166 459 1168.5 460 1170 460C1171.5 460 1174 459 1175.5 457.8ZM1230.6 457.5C1235.6 454.3 1237.7 442.3 1234.4 435.7C1231.1 429.2 1226.3 427.5 1220.1 430.6C1215.7 432.8 1213.8 437.6 1214.3 445C1214.9 451.4 1215.7 453.5 1219.2 456.6C1223.1 460.2 1225.9 460.4 1230.6 457.5ZM220.9 455.5C223.7 454.1 227.3 448.2 226.8 445.8C226.7 445.1 226.9 443.5 227.4 442.3C228.8 438.2 226.3 432.2 221.7 428.9C216.9 425.4 214.1 425.6 209.9 429.6C207.4 432 205 437.8 205 441.6C205 445.7 207.3 451.5 210 454.2C213.2 457.3 216.6 457.8 220.9 455.5ZM276.5 455.8C279.6 454.4 283.4 448.5 282.6 446.4C282.3 445.6 282.5 444.1 283.1 443.2C284.6 440.8 282.2 432.1 279.6 430.6C278.5 430 276.8 428.7 275.8 427.7C273.3 425.3 269.6 426.1 265.7 429.8C259 436.2 260.2 451.3 267.8 455.4C271.1 457.3 273.1 457.3 276.5 455.8ZM587.9 444.3C591 440.5 591.4 437.7 590.2 430.2C588.8 421.7 585.2 417.7 578.8 417.4C573.4 417.1 571.7 418.1 569.6 422.4C567.6 426.7 567.6 430.4 569.6 436.3C572.9 446 583.1 450.5 587.9 444.3ZM797.3 441.1C800.9 435.1 807.7 435 812.1 440.9C814.6 444.3 816 444.8 816 442.5C816 438 809.6 433 803.9 433C800.2 433 794 438.6 794 441.9C794 444.8 795.3 444.5 797.3 441.1ZM858.5 442C859.4 439.2 863.8 436 866.8 436C868.4 436 870.7 437.4 873.2 440.1C877.6 444.7 878.9 444.6 877 440C873.1 430.7 861.3 430.7 856.5 440C854.6 443.6 854.6 444 856.4 444C857.2 444 858.1 443.1 858.5 442ZM514.4 420.9C514.7 419.2 516.3 416.6 518 415C522.8 410.6 521.7 408.1 516.7 412C513.9 414.2 510.4 422.2 511.5 423.9C512.5 425.6 513.7 424.4 514.4 420.9ZM803.7 422.3C805.4 422 808.2 422.2 809.9 422.8C812.1 423.6 813.1 423.6 813.6 422.8C815.7 419.4 803.5 417.6 799.2 420.6C796.6 422.4 796.2 424.5 798.8 423.5C799.7 423.1 801.9 422.6 803.7 422.3ZM875 423.1C875 419.8 864.4 417.6 859.9 420C856.3 422 857.8 423 863.2 422.4C866.1 422.1 869.6 422.3 871 422.9C874.2 424.2 875 424.2 875 423.1ZM1484.6 419C1487 419 1488 418.5 1488 417.5C1488 415.7 1482.3 415.4 1478.6 417.2C1475.9 418.4 1472.7 422.4 1473.6 423.3C1473.9 423.6 1475.8 422.7 1477.7 421.4C1479.7 420 1482.7 419 1484.6 419ZM1233.6 418.6C1231.4 415.2 1227.7 412.8 1224.3 412.6C1220 412.4 1220.5 414.3 1225 415.8C1227.3 416.6 1230.1 418.5 1231.2 420.1C1233.9 423.8 1236.1 422.4 1233.6 418.6ZM1538 421.6C1538 420.8 1536.6 419 1534.9 417.6C1531.3 414.5 1523 413.8 1523 416.5C1523 417.6 1524.1 418 1526.9 418C1529.7 418 1531.7 418.7 1533.7 420.5C1536.9 423.3 1538 423.6 1538 421.6ZM1166.2 420C1168.3 418.7 1171.3 418 1174.3 418C1177.6 418 1179 417.6 1178.8 416.8C1178.2 415 1173.3 414 1169.8 415.1C1166.7 416 1162 419.6 1162 421.2C1162 422.4 1162.6 422.2 1166.2 420ZM218.4 414.2C223.9 413.4 224.9 411.6 220.1 411.2C216 410.8 211.9 412.4 209 415.5C205.7 419 207.5 420.8 211 417.5C212.8 415.8 215.4 414.6 218.4 414.2ZM280 417.2C280 414.3 270.7 409.4 267.4 410.7C264.7 411.7 265.9 414 269.2 414C271 414 273.9 414.9 275.5 415.9C278.8 418.1 280 418.4 280 417.2ZM583.1 399.2C579.5 394.1 570.5 391.1 570.5 395C570.5 395.9 571.9 396.7 574.5 397.1C577.3 397.6 579.2 398.7 581 400.9C584.1 404.8 586.1 403.3 583.1 399.2Z"/><path fill="#f8f6de" stroke="#f8f6de" stroke-width="1.2" stroke-linejoin="round" fill-rule="evenodd" d="M800.2 645.9C774.8 642.5 755.5 633.6 741.4 618.8C734.3 611.4 733.6 608.2 740.6 615.3C751.8 626.5 766.9 634.8 785 639.5C794.1 641.9 798 642.3 814.6 642.7C841.4 643.4 859.9 640.2 878.8 631.5C887.1 627.6 887 627.7 887 628.9C887 630.1 871.9 637.3 863 640.3C847.3 645.6 817.6 648.2 800.2 645.9ZM1440.1 645.9C1430.8 644.8 1419 641.5 1412.5 638.3C1407.8 635.8 1397 628.4 1397 627.5C1397 626.8 1400.4 628.2 1403.2 630.2C1407.5 633.2 1418.2 637.8 1426.2 640C1435.6 642.8 1456.8 643.8 1467.5 642.1C1477.1 640.5 1490.8 635.9 1496.8 632.2C1503.4 628.2 1506.3 627.3 1502.5 630.5C1498.6 633.8 1485.8 640.3 1479.5 642.3C1468.6 645.8 1451.7 647.3 1440.1 645.9ZM1147.5 643.3C1122.1 640.2 1102.7 631.7 1087.7 617.2C1079.7 609.5 1078.4 606.5 1085.6 612.7C1112 635.4 1146.8 645.2 1176.3 638.1C1181.1 637 1186.4 635.3 1188 634.5C1189.6 633.7 1191.5 633 1192.2 633C1195 633 1190.2 635.9 1182.5 638.8C1171 643.1 1158.8 644.7 1147.5 643.3ZM497.5 639C477.1 637.2 457.4 628.4 442.5 614.7C432.3 605.3 431 602.3 440.6 610.4C455.1 622.6 472 631.1 488.2 634.4C500.2 636.9 517.6 636.5 529.2 633.6C534.4 632.3 540.6 630.2 542.9 629C545.3 627.9 547.9 627 548.8 627.3C551.4 627.8 536.1 634.8 527.8 636.9C518.7 639.2 507.9 639.9 497.5 639ZM189.5 636.9C174.7 635.7 159.7 630.4 146.3 621.8C138.7 616.8 128.5 607.8 126.8 604.6C126.3 603.5 128 604.6 130.6 607.1C138.9 615 152.3 623 165.2 628C187.3 636.5 212 636.6 233.6 628.3C234.4 628 235 628.2 235 628.8C235 629.3 232.8 630.7 230.1 631.9C219.5 636.4 205.5 638.1 189.5 636.9ZM1455.8 633.5C1455.5 633.1 1457.2 631 1459.7 628.7C1469.3 619.9 1474.2 607.4 1474.3 591.5C1474.3 578.9 1472.5 571.7 1465.5 557.5C1460 546.2 1444.2 520.9 1442.2 520.2C1441.6 520 1440.2 521.6 1439.1 523.7C1438 525.8 1434.8 530.4 1432 534C1413.3 558 1407.9 569.4 1408.1 584.3C1408.2 600.4 1418.7 618.3 1433.3 627.5C1438.3 630.7 1439.5 632.6 1435.8 631.5C1429.6 629.7 1418.5 623.3 1413.2 618.4C1405.5 611.5 1400.8 604.3 1397.3 594.4C1395 587.7 1394.6 584.9 1394.6 575.5C1394.6 561.6 1395.5 557.5 1404.5 530.5C1414.4 500.8 1415.5 495.5 1415.5 474.5C1415.5 461.8 1415 455.4 1413.6 449.1C1411.7 440.3 1404.9 419.4 1402.5 415C1400.4 411.3 1394.2 393.8 1392.5 387.2C1389.6 375.7 1388 359 1389.9 359C1390.3 359 1391 361.4 1391.4 364.4C1392.9 377.8 1400.5 393 1413.3 408.9C1428.8 427.9 1437.1 439.7 1442 449.5C1451.9 469.3 1453.1 482.1 1447.4 507.2C1446.8 509.7 1447.4 510.3 1454.1 514.6C1485.8 534.9 1503.2 559.1 1503.3 582.9C1503.3 592.8 1502.1 598.1 1497.8 606.4C1491.9 618.2 1483 626.1 1470.5 630.6C1463.7 633 1456.7 634.4 1455.8 633.5ZM1152 629.7C1152 629.5 1154.2 627.1 1156.9 624.3C1166.9 613.9 1172.2 596.5 1170.1 580.9C1168.7 570.5 1166 562.6 1159.4 550.1C1154 540 1139.3 517.3 1136.6 515.1C1135.5 514.2 1134.7 514.8 1132.7 518.2C1131.3 520.6 1126.1 528.1 1121 535C1105.7 555.8 1102.5 563.9 1103.2 580.4C1103.5 589.9 1103.8 591.1 1107.8 599.2C1112.5 609 1122.1 619.7 1130.4 624.5C1136.7 628.2 1135 628.8 1127.2 625.7C1117.3 621.6 1106.4 613.4 1099.8 605C1087.1 588.9 1084.3 567.3 1091.7 543.5C1092.5 540.8 1095.7 531.5 1098.7 523C1111.9 485.6 1113.1 464.8 1103.8 429C1096.7 401.6 1095.9 396.7 1095.3 378.2C1094.9 365.8 1095.1 361 1095.9 361C1096.6 361 1097 362.9 1097 365.9C1097 373.1 1099.6 386.9 1102.6 395.2C1106.1 404.8 1109.4 411.4 1120.2 429.8C1140.8 465 1145 481.1 1139.5 503.2C1138.9 505.6 1139.7 506.3 1152.2 514.5C1162.2 521.2 1168.2 526.1 1176.6 534.5C1186.3 544.2 1188.3 546.8 1192.4 555.1C1198.5 567.5 1200 577 1197.6 588.6C1193.7 607.9 1181 622.5 1163.2 628C1157.6 629.8 1152 630.6 1152 629.7ZM506.6 628.3C506.4 628.1 508.4 625.9 511 623.4C520.6 614.4 526.7 596.9 525.6 581.7C524.9 572.3 520.5 558.4 514.8 548C510.7 540.5 495.9 517.7 493.5 515.1C492.4 514 491.5 514.8 488.2 519.6C486 522.9 480.5 530 475.8 535.6C461.8 552.2 457.8 561.4 457.8 576.3C457.9 585.9 460.4 595.1 465.1 602.5C469.3 609.2 481.5 621 486.7 623.5C489.1 624.6 491 625.8 491 626.2C491 627.2 490.3 627.2 488.2 626.1C487.3 625.6 484.1 624.2 481.2 623.1C469.3 618.5 456.4 607.7 450.3 597.2C446 589.9 443 580.2 442.3 571.9C441.3 558.6 443 551.1 455.4 515.2C466.1 484.2 467.6 458.8 460.4 432C459 426.8 455 415.1 451.5 406C444.7 388.5 441 373.1 441 363.1C441 355.8 442.5 355 443.3 361.9C444.8 374.3 451.7 388.1 464.7 404.7C482.1 426.8 486.4 433 491.5 443.5C498.1 456.8 500 464.4 500 477.5C500 486.1 499.2 491.2 496.3 503.6C495.9 505.2 497.1 506.4 502.2 509.5C520 520.4 538.7 537.4 545.8 549.2C551.5 558.8 553.3 565.3 553.4 576.5C553.5 584.5 553 587.9 551.2 593.3C546.5 606.9 537 617.7 524.5 623.6C518.2 626.6 507.7 629.3 506.6 628.3ZM800 628.2C800 627.8 801.6 626.4 803.6 625C807.6 622.3 813.7 614.7 816.8 608.4C822.8 596.5 824 579.6 820 565C818.6 559.9 814.7 550.9 810.4 542.5C806.3 534.8 800.5 523.2 797.3 516.8C794.1 510.4 791.2 505.1 790.9 505.1C790.5 505 790 506 789.6 507.3C788.8 510.7 782.3 520.4 772.7 532.4C752.4 558 748.3 578.1 758.9 599.5C763.3 608.3 770.8 617.4 777.7 622.1C780.1 623.8 781.9 625.4 781.6 625.7C780.6 626.7 771.6 622.9 764.4 618.5C755.8 613.1 745.6 602.4 741.3 594.3C739.6 591.1 737.2 585.2 736 581.2C734.1 574.8 733.8 572.3 734.3 561.7C734.9 546.4 737.2 538.2 747 517C763.5 481.4 766.3 472.2 766.4 453.5C766.4 441.3 765.6 436.4 759.5 412C757.3 403.1 755 390.1 755 386.6C755 383.1 756.6 385.3 757.8 390.5C759.7 398.7 763.8 407.8 773.7 426.1C789.9 456 793.9 468.1 794.1 487.5L794.2 498.5L803.3 506.6C808.4 511.1 816.7 518.5 821.9 523.1C842.5 541.3 851.8 556.9 852.8 575C853.6 590.8 848.3 603.8 836.5 614.9C829.2 621.7 822.9 625.3 814.3 627.5C808.3 629.1 800 629.5 800 628.2ZM199.6 626.3C199.4 626.1 201.4 623.8 204.1 621.3C210.2 615.6 215.4 605.4 217.6 595C221.7 575.4 215.1 555.3 194.3 524.2C189 516.4 184.3 509.7 183.9 509.5C183.5 509.2 181.9 511.4 180.2 514.3C178.6 517.2 173.3 524.7 168.6 531C153.1 551.5 148.3 565.3 150.9 581.1C153.3 595.5 163.7 611.1 176.2 619.1C184.2 624.3 179.4 624.1 169.1 618.9C162.5 615.6 158.6 612.6 152.4 606.5C140.1 594.2 135 581.9 135 564.5C135 552.7 136.5 546.3 144.4 522.9C152.4 499.2 154.8 489.3 155.9 475.6C157.7 451.7 153.3 429.9 141.5 404.5C138.5 398 134.6 385.4 132.7 376C130.7 366.1 129.5 349 130.7 349C131.3 349 132 352 132.3 355.8C133.7 372.2 141.2 386.4 160.3 408.8C182.6 435.1 191 453 191 474.1C191 482.4 189.3 493.5 187.1 499.2C186.2 501.7 186.4 502 194.6 506.9C228.7 527.3 246.6 550.7 246.4 575C246.3 595.6 235.5 613.1 217.6 621.6C211.1 624.7 200.7 627.4 199.6 626.3ZM1239.5 580C1238.4 579.5 1236.1 577.8 1234.4 576.3C1225.5 568.3 1218.5 555.5 1211.1 533.6C1203.7 512.1 1202.1 509.2 1192.8 500.6C1187.5 495.7 1184.9 492.7 1185.3 491.7C1185.6 490.9 1188.5 488.9 1191.7 487.4C1196.7 484.9 1198.6 484.5 1206 484.5C1215.8 484.6 1222.4 486.6 1232.9 492.9C1241 497.7 1252.5 507.6 1255.3 512.1L1257.4 515.5L1254 512.7C1241.8 502.9 1233.3 497.2 1225.2 493.2C1217.2 489.3 1214.8 488.6 1208.2 488.2C1200.2 487.8 1193.9 488.9 1190.5 491.4C1188.6 492.7 1188.9 493.2 1196.1 500.2C1204.5 508.3 1207.2 513 1213.5 531C1215.5 536.8 1219.9 547.1 1223.3 554C1228.3 564.3 1230.6 567.7 1236.2 573.5C1244.2 581.7 1244.5 582.2 1239.5 580ZM576.7 525.2C570.5 514.8 567.4 507.8 565 498.6C563.5 492.6 561.8 489.1 557.5 482.9C551.2 474 550.8 471.7 555.8 471.2C568.7 469.9 591.2 482.3 609.2 500.4C619.5 510.9 620 513.9 609.8 504.7C598.2 494.1 584.6 484.3 575.5 480C566.3 475.5 558.3 473.3 556.9 474.7C556.3 475.3 557.9 478.5 561.1 483.4C564.5 488.7 566.9 494 568.6 499.8C570 504.6 573.7 513.7 576.8 520C579.9 526.3 582.6 531.8 582.8 532.2C583 532.7 582.8 533 582.3 533C581.8 533 579.3 529.5 576.7 525.2ZM1479.3 462.5C1474.8 460.6 1472 454.7 1472 447C1472 437.8 1476.1 431.7 1482 431.7C1486.5 431.7 1487.7 433.3 1485.1 435.9C1482.5 438.5 1482.2 445.5 1484.6 448.8C1486.2 451.1 1489.9 451.7 1491.7 449.9C1493.5 448.1 1493.9 450.3 1492.5 454.4C1491 458.7 1487.6 462.5 1484.5 463.3C1483.4 463.7 1481.1 463.3 1479.3 462.5ZM1526.1 460.4C1522.9 458.1 1520 451.4 1520 446C1520 436.8 1526.3 429 1532.5 430.6C1536.1 431.5 1536.4 432.5 1533.5 435.4C1530.4 438.5 1530.2 443.7 1533.1 447.4C1535.3 450.2 1537.9 450.7 1539.8 448.8C1541.5 447.1 1542.3 450 1541 453.6C1538.2 461 1531.4 464.1 1526.1 460.4ZM526.3 458C519.7 454 516.1 440.9 519.7 434C521.8 430.1 525.9 427.4 528.4 428.3C529.7 428.8 529.9 429.4 529 430.9C527 434.8 527.8 439.9 530.9 443.1C534.2 446.3 536.1 446.7 538 444.5C539.8 442.4 541 443.6 541 447.6C541 453.9 536.3 460 531.5 460C530.4 460 528.1 459.1 526.3 458ZM1164.5 457.8C1161.7 455.6 1158.5 449.6 1159.4 448.1C1159.7 447.6 1161 447.5 1162.3 447.7C1167.7 448.8 1171.1 438.9 1167 433.8C1163.5 429.3 1168.7 427.3 1174.6 430.9C1182.7 435.9 1183.3 451.7 1175.5 457.8C1174 459 1171.5 460 1170 460C1168.5 460 1166 459 1164.5 457.8ZM1222.5 459C1219.8 457.9 1216.4 454.1 1215.1 450.7C1213.8 447.2 1214.6 445.4 1216.6 447.1C1217.8 448.1 1218.6 447.9 1220.8 446.3C1223 444.7 1223.6 443.4 1223.8 439.5C1224 436.2 1223.6 434.3 1222.5 433C1220.3 430.5 1221.4 429 1225.3 429C1231.5 429.1 1236 435.4 1236 444C1236 454.1 1229.1 461.8 1222.5 459ZM210 454.2C207.3 451.5 205 445.7 205 441.6C205 432.4 214 423.4 219.4 427.3C221.3 428.7 221.3 428.8 219.2 431.5C216.4 435 216.4 440 219.1 443.5C220.9 445.7 221.9 446.1 224.1 445.6C227.5 445 227.7 445.8 225.4 450.6C222.3 457.2 214.8 458.9 210 454.2ZM267.8 455.4C262.7 452.7 259.9 443.7 261.9 436.4C263.8 429.3 271.3 424.3 275.4 427.3C277.3 428.7 277.3 428.8 275.2 431.5C272.4 435 272.4 440 275.1 443.5C276.7 445.5 277.9 446.1 279.7 445.7C283.1 445.1 283.6 447.2 281.1 451.3C277.8 456.7 272.9 458.2 267.8 455.4ZM574.7 444C571 440.8 568 433.9 568 428.7C568 422.6 572.7 416.4 576.8 417.2C578.1 417.4 578.4 418.5 578.1 422.2C577.8 427.5 579 430.3 582.5 432.6C584.8 434.1 585.2 434.1 587.4 432.7C588.7 431.8 590 431.4 590.4 431.7C591.8 433.2 590.9 439.9 588.7 443.1C586.8 445.9 585.7 446.6 582.3 446.8C578.9 447.1 577.6 446.6 574.7 444ZM794 441.9C794 438.6 800.2 433 803.9 433C809.6 433 816 438 816 442.5C816 444.8 814.6 444.3 812.1 440.9C807.7 435 800.9 435.1 797.3 441.1C795.3 444.5 794 444.8 794 441.9ZM855 443.5C855 443.1 855.7 441.6 856.5 440C861.3 430.7 873.1 430.7 877 440C878.9 444.6 877.6 444.7 873.2 440.1C870.7 437.4 868.4 436 866.8 436C863.8 436 859.4 439.2 858.5 442C857.9 443.7 855 444.9 855 443.5ZM511.5 423.9C510.4 422.2 513.9 414.2 516.7 412C521.7 408.1 522.8 410.6 518 415C516.3 416.6 514.7 419.2 514.4 420.9C513.7 424.4 512.5 425.6 511.5 423.9ZM797 423.2C797 419.6 808.5 417.5 812.5 420.3C815.3 422.4 813.6 424.1 809.9 422.8C807 421.8 802.4 422.1 798.8 423.5C797.8 423.9 797 423.8 797 423.2ZM871 422.9C869.6 422.3 866.1 422.1 863.2 422.4C857.8 423 856.3 422 859.9 420C864.4 417.6 875 419.8 875 423.1C875 424.2 874.2 424.2 871 422.9ZM1473.6 423.3C1472.7 422.4 1475.9 418.4 1478.6 417.2C1482.3 415.4 1488 415.7 1488 417.5C1488 418.5 1487 419 1484.6 419C1482.7 419 1479.7 420 1477.7 421.4C1475.8 422.7 1473.9 423.6 1473.6 423.3ZM1231.2 420.1C1230.1 418.5 1227.3 416.6 1225 415.8C1220.5 414.3 1220 412.4 1224.3 412.6C1227.7 412.8 1231.4 415.2 1233.6 418.6C1236.1 422.4 1233.9 423.8 1231.2 420.1ZM1533.7 420.5C1531.7 418.7 1529.7 418 1526.9 418C1524.1 418 1523 417.6 1523 416.5C1523 413.8 1531.3 414.5 1534.9 417.6C1536.6 419 1538 420.8 1538 421.6C1538 423.6 1536.9 423.3 1533.7 420.5ZM1162 421.2C1162 419.6 1166.7 416 1169.8 415.1C1173.3 414 1178.2 415 1178.8 416.8C1179 417.6 1177.6 418 1174.3 418C1171.3 418 1168.3 418.7 1166.2 420C1162.6 422.2 1162 422.4 1162 421.2ZM207.5 419C206.6 417.5 210.3 413.5 214 412C217.2 410.7 223.6 411 223.3 412.5C223.2 413.1 221 413.8 218.4 414.2C215.4 414.6 212.8 415.8 211 417.5C209.1 419.3 208 419.8 207.5 419ZM275.5 415.9C273.9 414.9 271 414 269.2 414C267.1 414 266 413.5 266 412.6C266 409.2 273.5 410.2 277.7 414.2C281.8 418.1 280.5 419.1 275.5 415.9ZM581 400.9C579.2 398.7 577.3 397.6 574.5 397.1C571.9 396.7 570.5 395.9 570.5 395C570.5 391.1 579.5 394.1 583.1 399.2C586.1 403.3 584.1 404.8 581 400.9Z"/><path fill="#eaae0c" stroke="#eaae0c" stroke-width="1.2" stroke-linejoin="round" fill-rule="evenodd" d="M1442.9 633C1438.8 631.8 1428 624.1 1423 618.9C1410.9 606.2 1405.8 589.6 1409.1 573.8C1411.4 563.1 1417.1 553.2 1432 534C1434.8 530.4 1438 525.8 1439.1 523.7C1440.2 521.6 1441.6 520 1442.2 520.2C1444.2 520.9 1460 546.2 1465.5 557.5C1472.5 571.7 1474.3 578.9 1474.3 591.5C1474.2 607.8 1469.3 620.1 1459 629.3C1454.5 633.4 1453.2 634 1449.6 633.9C1447.4 633.9 1444.3 633.5 1442.9 633ZM1141.9 630.1C1136.3 629 1126.1 622.2 1118.7 614.7C1113.8 609.7 1110.8 605.5 1107.8 599.2C1103.8 591.1 1103.5 589.9 1103.2 580.4C1102.5 563.9 1105.7 555.8 1121 535C1126.1 528.1 1131.3 520.6 1132.7 518.2C1134.7 514.8 1135.5 514.2 1136.6 515.1C1139.3 517.3 1154 540 1159.4 550.1C1169.4 569.2 1172.3 582.3 1169.6 597.5C1167.6 609.2 1163.3 617.9 1155.8 625.2C1149.8 631.2 1149 631.5 1141.9 630.1ZM497 628.4C486.7 625.2 471.7 613 465.1 602.5C460.4 595.1 457.9 585.9 457.8 576.3C457.8 561.4 461.8 552.2 475.8 535.6C480.5 530 486 522.9 488.2 519.6C491.5 514.8 492.4 514 493.5 515.1C495.9 517.7 510.7 540.5 514.8 548C520.5 558.4 524.9 572.3 525.6 581.7C526.8 597.5 520.5 614.7 510.3 624C504.9 628.9 501.9 629.9 497 628.4ZM786.3 627.5C776.3 623.2 764.9 611.5 758.9 599.5C751.1 583.7 751.5 568 760.2 551C762.4 546.7 768 538.3 772.7 532.4C782.3 520.4 788.8 510.7 789.6 507.3C790 506 790.5 505 790.9 505.1C791.2 505.1 794.1 510.4 797.3 516.8C800.5 523.2 806.3 534.8 810.4 542.5C814.7 550.9 818.6 559.9 820 565C826.4 588.3 819.4 613.5 803.1 625.5C797.7 629.4 792.2 630.1 786.3 627.5ZM188.8 625.6C177.4 622.5 161.6 608.3 155.5 595.5C148.4 580.7 148.5 565.7 156 550.5C158.2 546.1 163.8 537.3 168.6 531C173.3 524.7 178.6 517.2 180.2 514.3C181.9 511.4 183.5 509.2 183.9 509.5C185.9 510.7 204.5 539.8 208.8 548.5C215 560.9 217.6 569.4 218.5 579.6C219.8 595.4 213.7 612.5 203.4 621.9C197.5 627.3 196.3 627.6 188.8 625.6ZM886.6 331.1C885.7 329.7 895.3 315.7 900 311.7C906.9 305.8 913 306.8 913 313.9C913 318.5 907.8 323.4 897.7 328.3C890 332.1 887.5 332.7 886.6 331.1ZM1197.5 319.5C1193.1 315.2 1195.4 309 1201.4 309C1207.8 309 1210.4 316 1205.4 319.9C1202 322.6 1200.4 322.5 1197.5 319.5ZM569.2 319.4C565.9 317.1 566.1 310.8 569.6 308.1C573.1 305.4 575.5 305.5 578.5 308.5C585 315 576.8 324.7 569.2 319.4ZM847.4 315.3C843.5 309.4 840.1 301.2 840 297.5C840 294.4 842.8 291 845.4 291C848.5 291 851.7 294.7 853 300C854.4 305.6 853.9 320.2 852.4 320.7C851.8 320.9 849.5 318.5 847.4 315.3ZM868.4 316.4C867.3 308.9 868.5 295.9 870.8 290.7C873.4 284.7 876.8 283 880.6 285.5C883.1 287.1 883.2 287.5 882.8 294.1C882.3 299.9 881.4 302.7 877.4 310.8C871.6 322.1 869.5 323.5 868.4 316.4ZM1210.1 297.4C1207.5 295.2 1207 294.1 1207 290.5C1207 284.3 1210.2 280.8 1215.9 280.6C1219.5 280.5 1220.6 281 1223.1 283.8C1227.5 288.7 1226.5 295.7 1220.9 298.6C1216.8 300.7 1213.5 300.3 1210.1 297.4ZM574.4 293.5C574 292.7 574.1 290.3 574.5 288.3C575 285.4 577.2 282.6 585 274.9C592.8 267.3 595.1 264.4 596 261.1C598.6 251.4 591.5 243.7 582.3 246.2C577.8 247.4 575.6 249.2 572.3 254.3C570.5 257.1 569.3 258 567.7 257.8C564.3 257.3 564.9 251 568.7 246.2C574.8 238.7 584.9 235.9 593.3 239.4C597.7 241.2 602.7 247.1 604 252.2C606.6 261.8 602.6 270.2 590.2 280.4C584.6 285 581.7 288.2 580.6 291C578.9 295.2 575.5 296.5 574.4 293.5ZM1218.4 267.2C1209.6 261.6 1210.5 248.8 1220.1 243.9C1224.9 241.5 1227.1 241.5 1232 244C1236.8 246.4 1239 250.4 1239 256.5C1239 260.2 1238.4 261.7 1235.7 264.7C1232.8 267.8 1231.6 268.4 1226.9 268.7C1222.8 269 1220.8 268.7 1218.4 267.2Z"/><path fill="#0b0b0e" stroke="#0b0b0e" stroke-width="1.2" stroke-linejoin="round" fill-rule="evenodd" d="M1484.6 448.8C1482.8 446.2 1482.5 439.8 1484 436.9C1485.2 434.8 1489.2 434.3 1490.8 436.2C1491.3 436.9 1492.3 439.4 1493 441.8C1493.9 445.5 1493.9 446.6 1492.5 448.6C1490.5 451.7 1486.6 451.7 1484.6 448.8ZM1533.1 447.4C1529.4 442.7 1531.3 434 1536 434C1538.7 434 1541.5 438.6 1541.5 443C1541.5 449.9 1536.9 452.2 1533.1 447.4ZM1159.5 445.7C1158.3 443.9 1158.3 442.6 1159.1 439.5C1161.1 432.3 1164.6 430.1 1167.4 434.2C1169.6 437.3 1169.4 442.2 1166.9 445.4C1164.4 448.6 1161.5 448.7 1159.5 445.7ZM1215.7 446.2C1213.6 443.9 1213.5 440 1215.5 435.5C1218.4 428.3 1224 430.7 1224 439.1C1224 443 1223.6 444.2 1221.4 445.9C1218.1 448.5 1217.7 448.5 1215.7 446.2ZM219.1 443.4C216.2 439.7 216.4 434.8 219.5 431.3L222 428.5L224.4 431.2C227.6 434.8 228.6 440.4 226.5 443.6C224.5 446.7 221.7 446.7 219.1 443.4ZM275.1 443.4C271.4 438.7 273.3 430 277.9 430C280.4 430 281.6 431.7 283.1 437.3C284.1 441.5 284 442.3 282.5 444C280 446.7 277.5 446.5 275.1 443.4ZM530.9 443.1C527.6 439.8 526.9 433.9 529.4 430.5C530.6 428.9 531.2 428.8 533.3 429.7C536 431 540 437.6 540 440.8C540 442.9 537.1 446 535.1 446C534.4 446 532.5 444.7 530.9 443.1ZM580.9 431.1C578.6 428.7 578 427.3 578 423.6C578 420 578.4 418.8 580.1 417.9C581.9 417 582.7 417.3 585.6 420.1C590.1 424.5 591.2 429.6 588 432.2C585 434.6 584.3 434.5 580.9 431.1Z"/></svg>