<svg xmlns="http://www.w3.org/2000/svg" viewBox="0 0 328 457" role="img" aria-labelledby="title"><title id="title">Maia celebrating</title><style>.enter,.maia,.eyes,.pupils,.float,.float path{transform-box:fill-box}
@media (prefers-reduced-motion: no-preference){
@keyframes breathe{from{transform:scaleY(1)}to{transform:scaleY(1.018)}}
@keyframes blink{0%,92%,100%{transform:scaleY(1)}94.5%,97%{transform:scaleY(.06)}}
@keyframes enter{0%{opacity:0;transform:scale(.82)}60%{opacity:1;transform:scale(1.045)}100%{opacity:1;transform:scale(1)}}
.enter{transform-origin:50% 100%;animation:enter .5s cubic-bezier(.2,.8,.3,1) both}
@keyframes hop{0%,52%,100%{transform:translateY(0) rotate(0deg)}18%{transform:translateY(-10px) rotate(-2deg)}34%{transform:translateY(-4px) rotate(1.4deg)}}
.maia{transform-origin:50% 100%;animation:hop 1.7s cubic-bezier(.36,0,.27,1) infinite}
@keyframes pop{0%,100%{transform:scale(1)}22%{transform:scale(1.25)}}
.float path{transform-origin:50% 100%;animation:pop 1.7s ease-out infinite}
.f1{animation-delay:.1s}.f2{animation-delay:.2s}}</style><g class="enter"><g class="maia"><path class="body-blue" fill="#1953c8" stroke="#1953c8" stroke-width="1.2" stroke-linejoin="round" fill-rule="evenodd" d="M69.4 446.6C68.3 443.7 69.9 436.1 73.5 426.9L77 418.1L72.8 409.6C70.5 404.9 68.8 400.8 69.1 400.5C69.4 400.2 73.2 401.6 77.6 403.6C81.9 405.6 90.1 408.4 95.7 409.8C105.2 412.2 106 412.5 106 414.8C106 418 98.5 429.3 92.4 435.4C82.6 445.1 71 450.8 69.4 446.6ZM200.8 439.5C190.1 436.6 176.3 428.2 168.6 420.2C166.1 417.4 165.9 416.8 166.7 413.4C167.5 409.8 167.9 409.5 175 407C184.2 403.7 198 397.1 198 395.9C198 394.7 198.1 394.6 189.8 398.5C170.9 407.2 152.4 410.4 125.6 409.7C102.5 409.2 91.4 406.7 75.5 399C52.4 387.6 38.3 370.9 31.8 346.9C29.9 340 29.5 336 29.5 324C29.6 304.1 32.7 291 42.3 270.7L47.4 259.9L36.3 237.2C21.2 206.5 15.2 190.4 11.4 170.8C8.8 157.4 9.3 157.3 22.3 169.2C28.6 174.9 37.5 182.6 42.1 186.4C50.2 192.9 70.3 207 71.4 207C71.7 207 72.7 205.5 73.6 203.7L75.3 200.5L76.3 203.5C76.8 205.2 77.3 212.3 77.3 219.5C77.4 239.1 74.9 247.6 58 284C48.2 305.2 45.9 313.4 45.3 328.7C44.8 339.3 45.1 341.8 47 348.2C48.2 352.2 50.6 358.1 52.3 361.3C58.8 373.6 75.2 387.7 87.6 391.5C90.3 392.4 94.5 393.7 97 394.5C99.6 395.3 105.4 395.9 110.7 395.9C126.6 395.9 136.5 392.1 147.5 381.9C159.3 370.8 164.6 357.8 163.8 342C162.8 323.9 153.5 308.3 132.9 290.1C127.7 285.5 119.4 278.1 114.3 273.6L105.2 265.5L105.1 254.5C104.9 235.1 100.9 223 84.7 193.1C71.2 168.2 67.8 158.8 66.4 143C65.2 128.8 69.7 105.2 77.5 85C85.7 63.9 102.5 34.7 117 16.6C123.5 8.3 125.2 8 124.4 15.2C123.5 23.2 125.7 45.4 128.4 55.6C136 83.7 147 97.8 176.9 117.5C198.8 131.9 203.9 135.8 214.5 146.5C228.6 160.5 239.6 178.7 245 196.8C246.7 202.2 247.6 204 249 204C253 204 301.4 180.9 310.8 174.5C312.8 173.1 315.3 172 316.3 172C317.9 172 318.1 172.5 317.5 176.2C316.3 183.5 311.1 197 305.5 207.7C299.8 218.6 293.7 227.8 279.1 248C262.3 271.2 256.4 284.6 251 311.2C247.1 330.1 243.3 342.1 237.5 353.3C229.9 368.1 220.5 379.5 208.5 388.5C203.8 392 203.4 392.7 200.8 401.4C199.3 406.4 198 411 198 411.6C198 412.2 200.9 417 204.5 422.4C211.4 432.7 212.9 436.3 211.3 438.9C210 441 206.6 441.2 200.8 439.5ZM108.3 208.1C111.9 202.1 118.7 202 123.1 207.9C125.6 211.3 127 211.8 127 209.5C127 205 120.6 200 114.9 200C111.2 200 105 205.6 105 208.9C105 211.8 106.3 211.5 108.3 208.1ZM169.5 209C170.4 206.2 174.8 203 177.8 203C179.4 203 181.7 204.4 184.2 207.1C188.6 211.7 189.9 211.6 188 207C184.1 197.7 172.3 197.7 167.5 207C165.6 210.6 165.6 211 167.4 211C168.2 211 169.1 210.1 169.5 209ZM114.7 189.3C116.4 189 119.2 189.2 120.9 189.8C123.1 190.6 124.1 190.6 124.6 189.8C126.7 186.4 114.5 184.6 110.2 187.6C107.6 189.4 107.2 191.5 109.8 190.5C110.7 190.1 112.9 189.6 114.7 189.3ZM186 190.1C186 186.8 175.4 184.6 170.9 187C167.3 189 168.8 190 174.2 189.4C177.1 189.1 180.6 189.3 182 189.9C185.2 191.2 186 191.2 186 190.1Z"/><path class="body-cream" fill="#f8f6de" stroke="#f8f6de" stroke-width="1.2" stroke-linejoin="round" fill-rule="evenodd" d="M111 395.2C111 394.8 112.6 393.4 114.6 392C118.6 389.3 124.7 381.7 127.8 375.4C133.8 363.5 135 346.6 131 332C129.6 326.9 125.7 317.9 121.4 309.5C117.3 301.8 111.5 290.2 108.3 283.8C105.1 277.4 102.2 272.1 101.9 272.1C101.5 272 101 273 100.6 274.3C99.8 277.7 93.3 287.4 83.7 299.4C63.4 325 59.3 345.1 69.9 366.5C74.3 375.3 81.8 384.4 88.7 389.1C91.1 390.8 92.9 392.4 92.6 392.7C91.6 393.7 82.6 389.9 75.4 385.5C66.8 380.1 56.6 369.4 52.3 361.3C50.6 358.1 48.2 352.2 47 348.2C45.1 341.8 44.8 339.3 45.3 328.7C45.9 313.4 48.2 305.2 58 284C74.5 248.4 77.3 239.2 77.4 220.5C77.4 208.3 76.6 203.4 70.5 179C68.3 170.1 66 157.1 66 153.6C66 150.1 67.6 152.3 68.8 157.5C70.7 165.7 74.8 174.8 84.7 193.1C100.9 223 104.9 235.1 105.1 254.5L105.2 265.5L114.3 273.6C119.4 278.1 127.7 285.5 132.9 290.1C153.5 308.3 162.8 323.9 163.8 342C164.6 357.8 159.3 370.8 147.5 381.9C140.2 388.7 133.9 392.3 125.3 394.5C119.3 396.1 111 396.5 111 395.2ZM111.2 412.9C85.8 409.5 66.5 400.6 52.4 385.8C45.3 378.4 44.6 375.2 51.6 382.3C62.8 393.5 77.9 401.8 96 406.5C105.1 408.9 109 409.3 125.6 409.7C152.4 410.4 170.9 407.2 189.8 398.5C198.1 394.6 198 394.7 198 395.9C198 397.1 182.9 404.3 174 407.3C158.3 412.6 128.6 415.2 111.2 412.9Z"/><path class="brows" fill="#f8f6de" stroke="#f8f6de" stroke-width="1.2" stroke-linejoin="round" fill-rule="evenodd" d="M105 208.9C105 205.6 111.2 200 114.9 200C120.6 200 127 205 127 209.5C127 211.8 125.6 211.3 123.1 207.9C118.7 202 111.9 202.1 108.3 208.1C106.3 211.5 105 211.8 105 208.9ZM166 210.5C166 210.1 166.7 208.6 167.5 207C172.3 197.7 184.1 197.7 188 207C189.9 211.6 188.6 211.7 184.2 207.1C181.7 204.4 179.4 203 177.8 203C174.8 203 170.4 206.2 169.5 209C168.9 210.7 166 211.9 166 210.5ZM108 190.2C108 186.6 119.5 184.5 123.5 187.3C126.3 189.4 124.6 191.1 120.9 189.8C118 188.8 113.4 189.1 109.8 190.5C108.8 190.9 108 190.8 108 190.2ZM182 189.9C180.6 189.3 177.1 189.1 174.2 189.4C168.8 190 167.3 189 170.9 187C175.4 184.6 186 186.8 186 190.1C186 191.2 185.2 191.2 182 189.9Z"/><path class="belly" fill="#eaae0c" stroke="#eaae0c" stroke-width="1.2" stroke-linejoin="round" fill-rule="evenodd" d="M97.3 394.5C87.3 390.2 75.9 378.5 69.9 366.5C62.1 350.7 62.5 335 71.2 318C73.4 313.7 79 305.3 83.7 299.4C93.3 287.4 99.8 277.7 100.6 274.3C101 273 101.5 272 101.9 272.1C102.2 272.1 105.1 277.4 108.3 283.8C111.5 290.2 117.3 301.8 121.4 309.5C125.7 317.9 129.6 326.9 131 332C137.4 355.3 130.4 380.5 114.1 392.5C108.7 396.4 103.2 397.1 97.3 394.5Z"/><g class="float"><path class="f0" fill="#eaae0c" stroke="#eaae0c" stroke-width="1.2" stroke-linejoin="round" fill-rule="evenodd" d="M197.6 98.1C196.7 96.7 206.3 82.7 211 78.7C217.9 72.8 224 73.8 224 80.9C224 85.5 218.8 90.4 208.7 95.3C201 99.1 198.5 99.7 197.6 98.1Z"/><path class="f1" fill="#eaae0c" stroke="#eaae0c" stroke-width="1.2" stroke-linejoin="round" fill-rule="evenodd" d="M158.4 82.3C154.5 76.4 151.1 68.2 151 64.5C151 61.4 153.8 58 156.4 58C159.5 58 162.7 61.7 164 67C165.4 72.6 164.9 87.2 163.4 87.7C162.8 87.9 160.5 85.5 158.4 82.3Z"/><path class="f2" fill="#eaae0c" stroke="#eaae0c" stroke-width="1.2" stroke-linejoin="round" fill-rule="evenodd" d="M179.4 83.4C178.3 75.9 179.5 62.9 181.8 57.7C184.4 51.7 187.8 50 191.6 52.5C194.1 54.1 194.2 54.5 193.8 61.1C193.3 66.9 192.4 69.7 188.4 77.8C182.6 89.1 180.5 90.5 179.4 83.4Z"/></g></g></g></svg>
