<svg xmlns="http://www.w3.org/2000/svg" viewBox="0 0 243 485" role="img" aria-labelledby="title"><title id="title">Maia attentive</title><style>.enter,.maia,.eyes,.pupils,.float,.float path{transform-box:fill-box}
@media (prefers-reduced-motion: no-preference){
@keyframes breathe{from{transform:scaleY(1)}to{transform:scaleY(1.018)}}
@keyframes blink{0%,92%,100%{transform:scaleY(1)}94.5%,97%{transform:scaleY(.06)}}
@keyframes enter{0%{opacity:0;transform:scale(.82)}60%{opacity:1;transform:scale(1.045)}100%{opacity:1;transform:scale(1)}}
.enter{transform-origin:50% 100%;animation:enter .5s cubic-bezier(.2,.8,.3,1) both}
.maia{transform-origin:50% 100%;animation:breathe 3.4s ease-in-out infinite alternate}
.eyes{transform-origin:50% 50%;animation:blink 4.6s linear infinite}
@keyframes dart{0%,84%,100%{transform:translateX(0)}88%,95%{transform:translateX(2.6px)}}
.pupils{animation:dart 8.8s linear infinite}}</style><g class="enter"><g class="maia"><path class="body-blue" fill="#1953c8" stroke="#1953c8" stroke-width="1.2" stroke-linejoin="round" fill-rule="evenodd" d="M159 475C147.9 474.2 133.7 471.7 128.3 469.5L125.1 468.1L125.7 453.3C126 445.2 126.6 437.8 127.1 436.9C127.6 436 129.7 435 132 434.6C136.1 434 145.3 430.7 148 429C151.2 427 148 427.2 140.7 429.5C106.5 440.4 66 428.7 38.9 400.2C26.1 386.8 17.8 371.2 12.8 351.3C10.9 343.9 10.6 339.8 10.6 325C10.6 309.4 10.9 306.3 13.3 296.8C17.1 281.5 21.5 270.6 34.6 244.7C40.9 232.2 47.6 217.3 49.5 211.7C51.4 206.1 53.3 201.4 53.8 201.2C54.6 201 64 223.3 65.4 229C69.6 245.7 71 259.7 69.9 274.5C68.8 288.3 66.4 298.2 58.4 321.9C50.5 345.3 49 351.7 49 363.5C49 373.9 50.8 381.7 55.2 391C61.4 403.8 80.2 419.2 93.1 422C95.5 422.5 100 423.6 103 424.4C115.2 427.9 132.6 422.9 143.7 412.7C158.4 399.3 164.2 377 158.1 358.1C152.1 339.9 134.7 321.5 108.6 305.9C100.4 301 100.2 300.7 101.1 298.2C103.3 292.5 105 281.4 105 273.1C105 252 96.6 234.1 74.3 207.8C59.3 190.2 53.8 181.5 49.5 168.9C41.6 145.9 45.6 118.7 61.4 87.5C68.8 72.9 81.6 53.2 92.7 39.5C103.5 26.1 119.1 9.7 120.1 10.7C120.6 11.2 120.3 15.6 119.4 20.5C111.1 71.4 115.4 96.2 136.5 117.5C140.9 122 151.2 131 159.5 137.5C189.7 161.5 203.3 176.6 214.4 198.6C240 249.5 239.3 309.5 212.5 362C198.9 388.5 182.6 406.8 157.4 423.8C156.9 424.2 155.4 429.4 154.1 435.5C152.9 441.6 151.6 447.4 151.4 448.6C150.9 450.3 152.1 451.5 158.2 455.3C162.3 457.8 168 462.4 170.8 465.4C179.6 474.7 177.9 476.2 159 475ZM39.7 474.3C37 471.7 45.3 461.9 57 454C61.9 450.7 63.1 449.4 62.6 447.8C61.2 442 57.7 421 58.2 420.5C58.5 420.2 61.8 421.7 65.5 423.9C69.3 426.1 75.5 429.1 79.5 430.5L86.6 433.1L87.7 449.3C88.5 460.7 88.6 465.8 87.8 466.7C86.5 468.4 76.3 471.5 65.9 473.5C57.7 475 40.9 475.6 39.7 474.3Z"/><path class="body-cream" fill="#f8f6de" stroke="#f8f6de" stroke-width="1.2" stroke-linejoin="round" fill-rule="evenodd" d="M113.6 425.3C113.4 425.1 115.4 422.8 118.1 420.3C124.2 414.6 129.4 404.4 131.6 394C135.7 374.4 129.1 354.3 108.3 323.2C103 315.4 98.3 308.7 97.9 308.5C97.5 308.2 95.9 310.4 94.2 313.3C92.6 316.2 87.3 323.7 82.6 330C67.1 350.5 62.3 364.3 64.9 380.1C67.3 394.5 77.7 410.1 90.2 418.1C98.2 423.3 93.4 423.1 83.1 417.9C76.5 414.6 72.6 411.6 66.4 405.5C54.1 393.2 49 380.9 49 363.5C49 351.7 50.5 345.3 58.4 321.9C66.4 298.2 68.8 288.3 69.9 274.6C71.7 250.7 67.3 228.9 55.5 203.5C52.5 197 48.6 184.4 46.7 175C44.7 165.1 43.5 148 44.7 148C45.3 148 46 151 46.3 154.8C47.7 171.2 55.2 185.4 74.3 207.8C96.6 234.1 105 252 105 273.1C105 281.4 103.3 292.5 101.1 298.2C100.2 300.7 100.4 301 108.6 305.9C142.7 326.3 160.6 349.7 160.4 374C160.3 394.6 149.5 412.1 131.6 420.6C125.1 423.7 114.7 426.4 113.6 425.3ZM103.5 435.9C88.7 434.7 73.7 429.4 60.3 420.8C52.7 415.8 42.5 406.8 40.8 403.6C40.3 402.5 42 403.6 44.6 406.1C52.9 414 66.3 422 79.2 427C101.3 435.5 126 435.6 147.6 427.3C148.4 427 149 427.2 149 427.8C149 428.3 146.8 429.7 144.1 430.9C133.5 435.4 119.5 437.1 103.5 435.9Z"/><path class="brows" fill="#f8f6de" stroke="#f8f6de" stroke-width="1.2" stroke-linejoin="round" fill-rule="evenodd" d="M121.5 218C120.6 216.5 124.3 212.5 128 211C131.2 209.7 137.6 210 137.3 211.5C137.2 212.1 135 212.8 132.4 213.2C129.4 213.6 126.8 214.8 125 216.5C123.1 218.3 122 218.8 121.5 218ZM189.5 214.9C187.8 213.9 185 213 183.2 213C181.1 213 180 212.5 180 211.6C180 208.2 187.5 209.2 191.7 213.2C195.8 217.1 194.5 218.1 189.5 214.9Z"/><path class="belly" fill="#eaae0c" stroke="#eaae0c" stroke-width="1.2" stroke-linejoin="round" fill-rule="evenodd" d="M102.8 424.6C91.4 421.5 75.6 407.3 69.5 394.5C62.4 379.7 62.5 364.7 70 349.5C72.2 345.1 77.8 336.3 82.6 330C87.3 323.7 92.6 316.2 94.2 313.3C95.9 310.4 97.5 308.2 97.9 308.5C99.9 309.7 118.5 338.8 122.8 347.5C129 359.9 131.6 368.4 132.5 378.6C133.8 394.4 127.7 411.5 117.4 420.9C111.5 426.3 110.3 426.6 102.8 424.6Z"/><g class="eyes"><path class="whites" fill="#f8f6de" stroke="#f8f6de" stroke-width="1.2" stroke-linejoin="round" fill-rule="evenodd" d="M124 253.2C121.3 250.5 119 244.7 119 240.6C119 231.4 128 222.4 133.4 226.3C135.3 227.7 135.3 227.8 133.2 230.5C130.4 234 130.4 239 133.1 242.5C134.9 244.7 135.9 245.1 138.1 244.6C141.5 244 141.7 244.8 139.4 249.6C136.3 256.2 128.8 257.9 124 253.2ZM181.8 254.4C176.7 251.7 173.9 242.7 175.9 235.4C177.8 228.3 185.3 223.3 189.4 226.3C191.3 227.7 191.3 227.8 189.2 230.5C186.4 234 186.4 239 189.1 242.5C190.7 244.5 191.9 245.1 193.7 244.7C197.1 244.1 197.6 246.2 195.1 250.3C191.8 255.7 186.9 257.2 181.8 254.4Z"/><path class="pupils" fill="#0b0b0e" stroke="#0b0b0e" stroke-width="1.2" stroke-linejoin="round" fill-rule="evenodd" d="M133.1 242.4C130.2 238.7 130.4 233.8 133.5 230.3L136 227.5L138.4 230.2C141.6 233.8 142.6 239.4 140.5 242.6C138.5 245.7 135.7 245.7 133.1 242.4ZM189.1 242.4C185.4 237.7 187.3 229 191.9 229C194.4 229 195.6 230.7 197.1 236.3C198.1 240.5 198 241.3 196.5 243C194 245.7 191.5 245.5 189.1 242.4Z"/></g></g></g></svg>
