<svg xmlns="http://www.w3.org/2000/svg" viewBox="0 0 296 449" role="img" aria-labelledby="title"><title id="title">Maia pointing</title><style>.enter,.maia,.eyes,.pupils,.float,.float path{transform-box:fill-box}
@media (prefers-reduced-motion: no-preference){
@keyframes breathe{from{transform:scaleY(1)}to{transform:scaleY(1.018)}}
@keyframes blink{0%,92%,100%{transform:scaleY(1)}94.5%,97%{transform:scaleY(.06)}}
@keyframes enter{0%{opacity:0;transform:scale(.82)}60%{opacity:1;transform:scale(1.045)}100%{opacity:1;transform:scale(1)}}
.enter{transform-origin:50% 100%;animation:enter .5s cubic-bezier(.2,.8,.3,1) both}
@keyframes lean{from{transform:scaleY(1) rotate(0deg)}to{transform:scaleY(1.015) rotate(1.3deg)}}
.maia{transform-origin:50% 100%;animation:lean 3.1s ease-in-out infinite alternate}
.eyes{transform-origin:50% 50%;animation:blink 4.3s linear infinite}}</style><g class="enter"><g class="maia"><path class="body-blue" fill="#1953c8" stroke="#1953c8" stroke-width="1.2" stroke-linejoin="round" fill-rule="evenodd" d="M32.1 439.2C30.7 438.8 29.5 437.9 29.3 437.3C28.5 435.1 36.5 427.7 46.2 421.3C56.8 414.4 56.2 415.5 57.5 402.6C57.8 399.3 58.2 396.4 58.4 396.2C58.6 396 60.8 396.9 63.2 398.1C65.5 399.3 70.9 401.3 75 402.5L82.5 404.7L82.2 408.1C81.9 411.4 79.5 426.2 78.5 430.7C78.2 431.9 77 433.4 75.9 434.1C70.3 437 37.6 440.9 32.1 439.2ZM151.5 439.3C143.4 438.6 127.5 435.8 126.2 434.8C125.4 434 125 429.6 125 419L125 404.2L130.2 402.4C136.2 400.5 146.2 395.7 150.3 392.8C151.9 391.7 153.3 390.9 153.5 391.1C153.6 391.3 153.2 394.9 152.4 399C151.7 403.1 150.7 408.6 150.4 411.1L149.7 415.8L159.6 422.2C169.4 428.6 176.4 435.2 175.7 437.3C175.5 437.9 174.3 438.7 172.9 439.1C170.4 439.8 158.7 439.9 151.5 439.3ZM85.2 401.9C77.7 400.6 65.5 396.4 59 392.8C56 391.1 52.3 389.1 50.9 388.4C49.5 387.6 44.3 382.8 39.4 377.8C26.7 364.7 18.4 349.5 12.7 329.2C10.9 322.6 10.6 318.7 10.6 302.5C10.5 285.7 10.8 282.5 12.9 274.5C16.1 262.2 22 247.9 33.5 225C44.1 203.7 47.9 194.4 50.5 182.8C52.2 175 53.2 173.5 54.5 176.8C63.9 201 66.5 213.3 66.5 234.5C66.5 255.5 65.4 260.8 55.5 290.5C46.5 317.5 45.6 321.6 45.6 335.5C45.6 344.9 46 347.7 48.3 354.4C51.8 364.3 56.5 371.5 64.2 378.4C70.1 383.7 82.7 390.8 87.2 391.4C88.5 391.6 91.4 392.2 93.8 392.9C100.1 394.7 113.1 393.6 121 390.8C134 386.1 142.8 378.4 148.8 366.4C153.1 358.1 154.3 352.8 154.3 342.9C154.2 319.1 136.8 294.9 105.1 274.6C98.4 270.3 97.8 269.7 98.4 267.2C101.5 253.4 102.2 247.9 101.7 240C100.2 218.3 92.4 203.4 64.3 168.9C50.9 152.3 44.5 139.1 42 122.4C38 96.4 49.6 67.4 73.5 43.5C89.1 27.9 107.2 17 125.6 12.1C137 9.1 143.4 9.4 138.1 12.7C137.1 13.3 133.5 17.3 130.1 21.5C114.5 40.9 111 58.9 119.6 75.8C123.8 84.1 128.4 89 156.8 115.9C175.5 133.5 185 145.5 193.4 162C202.7 180.1 208.1 199.7 209.9 221.9C210.4 228.1 211.3 233.7 211.9 234.3C213.9 236.3 251.7 228.8 274.3 221.8C287.9 217.6 288.7 218.8 279.1 228.4C272.6 234.9 271.9 236 272.9 237.8C274.6 240.9 274.2 247.8 272.2 251.2C269.1 256.5 264.5 258.5 255.7 258.5L247.9 258.5L226.6 279.7L205.3 301L203 309.7C198.3 327.5 190.2 345.8 180.2 361C174.9 369 156.2 389 154 389C153.5 389 150.8 390.4 148.1 392C142.1 395.7 131.1 399.6 121.2 401.6C113.1 403.1 93.7 403.3 85.2 401.9Z"/><path class="body-cream" fill="#f8f6de" stroke="#f8f6de" stroke-width="1.2" stroke-linejoin="round" fill-rule="evenodd" d="M106.8 393.5C106.5 393.1 108.2 391 110.7 388.7C120.3 379.9 125.2 367.4 125.3 351.5C125.3 338.9 123.5 331.7 116.5 317.5C111 306.2 95.2 280.9 93.2 280.2C92.6 280 91.2 281.6 90.1 283.7C89 285.8 85.8 290.4 83 294C64.3 318 58.9 329.4 59.1 344.3C59.2 360.4 69.7 378.3 84.3 387.5C89.3 390.7 90.5 392.6 86.8 391.5C80.6 389.7 69.5 383.3 64.2 378.4C56.5 371.5 51.8 364.3 48.3 354.4C46 347.7 45.6 344.9 45.6 335.5C45.6 321.6 46.5 317.5 55.5 290.5C65.4 260.8 66.5 255.5 66.5 234.5C66.5 221.8 66 215.4 64.6 209.1C62.7 200.3 55.9 179.4 53.5 175C51.4 171.3 45.2 153.8 43.5 147.2C40.6 135.7 39 119 40.9 119C41.3 119 42 121.4 42.4 124.4C43.9 137.8 51.5 153 64.3 168.9C79.8 187.9 88.1 199.7 93 209.5C102.9 229.3 104.1 242.1 98.4 267.2C97.8 269.7 98.4 270.3 105.1 274.6C136.8 294.9 154.2 319.1 154.3 342.9C154.3 352.8 153.1 358.1 148.8 366.4C142.9 378.2 134 386.1 121.5 390.6C114.7 393 107.7 394.4 106.8 393.5ZM91.1 405.9C81.8 404.8 70 401.5 63.5 398.3C58.8 395.8 48 388.4 48 387.5C48 386.8 51.4 388.2 54.2 390.2C58.5 393.2 69.2 397.8 77.2 400C86.6 402.8 107.8 403.8 118.5 402.1C128.1 400.5 141.8 395.9 147.8 392.2C154.4 388.2 157.3 387.3 153.5 390.5C149.6 393.8 136.8 400.3 130.5 402.3C119.6 405.8 102.7 407.3 91.1 405.9Z"/><path class="brows" fill="#f8f6de" stroke="#f8f6de" stroke-width="1.2" stroke-linejoin="round" fill-rule="evenodd" d="M124.6 183.3C123.7 182.4 126.9 178.4 129.6 177.2C133.3 175.4 139 175.7 139 177.5C139 178.5 138 179 135.6 179C133.7 179 130.7 180 128.7 181.4C126.8 182.7 124.9 183.6 124.6 183.3ZM184.7 180.5C182.7 178.7 180.7 178 177.9 178C175.1 178 174 177.6 174 176.5C174 173.8 182.3 174.5 185.9 177.6C187.6 179 189 180.8 189 181.6C189 183.6 187.9 183.3 184.7 180.5Z"/><path class="belly" fill="#eaae0c" stroke="#eaae0c" stroke-width="1.2" stroke-linejoin="round" fill-rule="evenodd" d="M93.9 393C89.8 391.8 79 384.1 74 378.9C61.9 366.2 56.8 349.6 60.1 333.8C62.4 323.1 68.1 313.2 83 294C85.8 290.4 89 285.8 90.1 283.7C91.2 281.6 92.6 280 93.2 280.2C95.2 280.9 111 306.2 116.5 317.5C123.5 331.7 125.3 338.9 125.3 351.5C125.2 367.8 120.3 380.1 110 389.3C105.5 393.4 104.2 394 100.6 393.9C98.4 393.9 95.3 393.5 93.9 393Z"/><g class="eyes"><path class="whites" fill="#f8f6de" stroke="#f8f6de" stroke-width="1.2" stroke-linejoin="round" fill-rule="evenodd" d="M130.3 222.5C125.8 220.6 123 214.7 123 207C123 197.8 127.1 191.7 133 191.7C137.5 191.7 138.7 193.3 136.1 195.9C133.5 198.5 133.2 205.5 135.6 208.8C137.2 211.1 140.9 211.7 142.7 209.9C144.5 208.1 144.9 210.3 143.5 214.4C142 218.7 138.6 222.5 135.5 223.3C134.4 223.7 132.1 223.3 130.3 222.5ZM177.1 220.4C173.9 218.1 171 211.4 171 206C171 196.8 177.3 189 183.5 190.6C187.1 191.5 187.4 192.5 184.5 195.4C181.4 198.5 181.2 203.7 184.1 207.4C186.3 210.2 188.9 210.7 190.8 208.8C192.5 207.1 193.3 210 192 213.6C189.2 221 182.4 224.1 177.1 220.4Z"/><path class="pupils" fill="#0b0b0e" stroke="#0b0b0e" stroke-width="1.2" stroke-linejoin="round" fill-rule="evenodd" d="M135.6 208.8C133.8 206.2 133.5 199.8 135 196.9C136.2 194.8 140.2 194.3 141.8 196.2C142.3 196.9 143.3 199.4 144 201.8C144.9 205.5 144.9 206.6 143.5 208.6C141.5 211.7 137.6 211.7 135.6 208.8ZM184.1 207.4C180.4 202.7 182.3 194 187 194C189.7 194 192.5 198.6 192.5 203C192.5 209.9 187.9 212.2 184.1 207.4Z"/></g></g></g></svg>
